<svg width="567" height="58" viewBox="0 0 567 58" fill="none" xmlns="http://www.w3.org/2000/svg">
<path d="M167 29.2219C167 28.3997 166.932 27.7997 166.785 27.1775H157.204V30.8886H162.828C162.714 31.8108 162.102 33.1997 160.742 34.133L160.722 34.2572L163.752 36.557L163.962 36.5775C165.889 34.833 167 32.2664 167 29.2219Z" fill="#4285F4"/>
<path d="M157.203 39C159.958 39 162.271 38.1111 163.96 36.5778L160.74 34.1332C159.879 34.7221 158.722 35.1332 157.203 35.1332C154.504 35.1332 152.214 33.3888 151.398 30.9777L151.278 30.9877L148.128 33.3766L148.087 33.4888C149.765 36.7555 153.212 39 157.203 39Z" fill="#34A853"/>
<path d="M151.399 30.9778C151.184 30.3556 151.059 29.6889 151.059 29C151.059 28.3111 151.184 27.6444 151.388 27.0222L151.382 26.8897L148.193 24.4624L148.088 24.5111C147.397 25.8667 147 27.3889 147 29C147 30.6111 147.397 32.1333 148.088 33.4888L151.399 30.9778Z" fill="#FBBC05"/>
<path d="M157.203 22.8666C159.119 22.8666 160.411 23.6777 161.148 24.3556L164.028 21.6C162.26 19.9889 159.958 19 157.203 19C153.212 19 149.765 21.2444 148.087 24.511L151.386 27.0222C152.214 24.6111 154.504 22.8666 157.203 22.8666Z" fill="#EB4335"/>
<path d="M187.713 22.678C187.053 22.678 186.437 22.832 185.865 23.14C185.307 23.448 184.816 23.888 184.391 24.46C183.98 25.032 183.657 25.7213 183.423 26.528C183.188 27.32 183.071 28.2073 183.071 29.19C183.071 30.1873 183.181 31.0893 183.401 31.896C183.635 32.688 183.965 33.37 184.391 33.942C184.816 34.4993 185.337 34.932 185.953 35.24C186.569 35.548 187.258 35.702 188.021 35.702C188.842 35.702 189.561 35.5113 190.177 35.13C190.793 34.7487 191.306 34.228 191.717 33.568C192.142 32.8933 192.45 32.138 192.641 31.302L194.071 31.852C193.836 32.908 193.44 33.8393 192.883 34.646C192.325 35.4527 191.614 36.0833 190.749 36.538C189.883 36.9927 188.886 37.22 187.757 37.22C186.642 37.22 185.615 37.0293 184.677 36.648C183.753 36.252 182.946 35.702 182.257 34.998C181.582 34.2793 181.054 33.4287 180.673 32.446C180.306 31.4633 180.123 30.378 180.123 29.19C180.123 28.002 180.313 26.9167 180.695 25.934C181.091 24.9513 181.626 24.108 182.301 23.404C182.99 22.6853 183.775 22.1353 184.655 21.754C185.549 21.358 186.503 21.16 187.515 21.16C188.541 21.16 189.407 21.3213 190.111 21.644C190.815 21.9667 191.387 22.414 191.827 22.986C192.281 23.558 192.626 24.2327 192.861 25.01L191.937 24.944L192.311 21.38H193.785V26.176H192.113C191.893 25.472 191.585 24.8633 191.189 24.35C190.793 23.822 190.309 23.4113 189.737 23.118C189.179 22.8247 188.505 22.678 187.713 22.678ZM207.794 31.39C207.794 32.534 207.544 33.546 207.046 34.426C206.547 35.306 205.85 35.9953 204.956 36.494C204.061 36.978 203.02 37.22 201.832 37.22C200.658 37.22 199.624 36.978 198.73 36.494C197.835 35.9953 197.131 35.306 196.618 34.426C196.119 33.546 195.87 32.534 195.87 31.39C195.87 30.5393 196.009 29.762 196.288 29.058C196.581 28.3393 196.992 27.7233 197.52 27.21C198.062 26.682 198.693 26.2787 199.412 26C200.145 25.7213 200.952 25.582 201.832 25.582C202.726 25.582 203.533 25.7213 204.252 26C204.985 26.2787 205.616 26.682 206.144 27.21C206.686 27.7233 207.097 28.3393 207.376 29.058C207.654 29.762 207.794 30.5393 207.794 31.39ZM198.62 31.39C198.62 32.2993 198.752 33.0913 199.016 33.766C199.28 34.426 199.646 34.9393 200.116 35.306C200.6 35.658 201.172 35.834 201.832 35.834C202.506 35.834 203.078 35.658 203.548 35.306C204.032 34.9393 204.398 34.426 204.648 33.766C204.912 33.0913 205.044 32.2993 205.044 31.39C205.044 30.4807 204.912 29.696 204.648 29.036C204.398 28.376 204.032 27.87 203.548 27.518C203.078 27.166 202.506 26.99 201.832 26.99C201.172 26.99 200.6 27.166 200.116 27.518C199.646 27.87 199.28 28.376 199.016 29.036C198.752 29.696 198.62 30.4807 198.62 31.39ZM209.466 37V35.878H209.488C209.796 35.878 210.067 35.856 210.302 35.812C210.551 35.768 210.742 35.6947 210.874 35.592C211.006 35.4747 211.072 35.3207 211.072 35.13V27.892C211.072 27.7013 211.02 27.5547 210.918 27.452C210.83 27.3493 210.676 27.2687 210.456 27.21C210.25 27.1367 209.986 27.0633 209.664 26.99L209.466 26.946V25.802H213.514V28.156L213.734 28.332V35.68C213.734 35.724 213.807 35.7607 213.954 35.79C214.115 35.8193 214.298 35.8413 214.504 35.856C214.724 35.8707 214.929 35.878 215.12 35.878H215.186V37H209.466ZM222.644 37H216.924V35.878H216.946C217.136 35.878 217.342 35.8707 217.562 35.856C217.782 35.8413 217.972 35.8193 218.134 35.79C218.295 35.746 218.376 35.7093 218.376 35.68V29.344C218.376 28.86 218.317 28.464 218.2 28.156C218.097 27.8333 217.921 27.5987 217.672 27.452C217.437 27.3053 217.114 27.232 216.704 27.232C216.264 27.232 215.846 27.3273 215.45 27.518C215.054 27.7087 214.68 27.9947 214.328 28.376C213.976 28.7573 213.638 29.2267 213.316 29.784V28.112C213.668 27.5547 214.049 27.0927 214.46 26.726C214.87 26.3447 215.318 26.0587 215.802 25.868C216.3 25.6773 216.843 25.582 217.43 25.582C218.148 25.582 218.772 25.714 219.3 25.978C219.842 26.2273 220.26 26.6233 220.554 27.166C220.862 27.694 221.016 28.376 221.016 29.212V35.13C221.016 35.3207 221.082 35.4747 221.214 35.592C221.346 35.6947 221.529 35.768 221.764 35.812C222.013 35.856 222.292 35.878 222.6 35.878H222.644V37ZM223.245 27.166V25.912H223.333C223.729 25.912 224.073 25.8827 224.367 25.824C224.66 25.7653 224.88 25.6627 225.027 25.516C225.173 25.3547 225.247 25.1347 225.247 24.856L226.985 25.802H230.901V27.166H223.245ZM227.733 33.15C227.733 33.766 227.806 34.2647 227.953 34.646C228.114 35.0273 228.334 35.306 228.613 35.482C228.906 35.6433 229.243 35.724 229.625 35.724C229.933 35.724 230.211 35.6947 230.461 35.636C230.725 35.5773 230.945 35.5187 231.121 35.46V36.868C230.989 36.9267 230.82 36.978 230.615 37.022C230.424 37.0807 230.204 37.1247 229.955 37.154C229.72 37.198 229.456 37.22 229.163 37.22C228.444 37.22 227.777 37.1027 227.161 36.868C226.545 36.6187 226.046 36.2007 225.665 35.614C225.283 35.0273 225.093 34.2207 225.093 33.194V26.176L225.247 26V22.722H227.733V33.15ZM235.142 23.646C234.673 23.646 234.284 23.514 233.976 23.25C233.683 22.986 233.536 22.6193 233.536 22.15C233.536 21.6807 233.683 21.3213 233.976 21.072C234.284 20.808 234.673 20.676 235.142 20.676C235.626 20.676 236.015 20.808 236.308 21.072C236.616 21.3213 236.77 21.6807 236.77 22.15C236.77 22.6193 236.616 22.986 236.308 23.25C236.015 23.514 235.626 23.646 235.142 23.646ZM236.55 25.802V35.13C236.55 35.438 236.704 35.6433 237.012 35.746C237.32 35.834 237.702 35.878 238.156 35.878H238.178V37H232.282V35.878H232.304C232.774 35.878 233.155 35.834 233.448 35.746C233.756 35.6433 233.91 35.438 233.91 35.13V27.892C233.91 27.5987 233.793 27.4007 233.558 27.298C233.338 27.1807 232.986 27.078 232.502 26.99L232.282 26.946V25.802H236.55ZM239.394 37V35.878H239.416C239.724 35.878 239.995 35.856 240.23 35.812C240.479 35.768 240.67 35.6947 240.802 35.592C240.934 35.4747 241 35.3207 241 35.13V27.892C241 27.7013 240.948 27.5547 240.846 27.452C240.758 27.3493 240.604 27.2687 240.384 27.21C240.178 27.1367 239.914 27.0633 239.592 26.99L239.394 26.946V25.802H243.442V28.156L243.662 28.332V35.68C243.662 35.724 243.735 35.7607 243.882 35.79C244.043 35.8193 244.226 35.8413 244.432 35.856C244.652 35.8707 244.857 35.878 245.048 35.878H245.114V37H239.394ZM252.572 37H246.852V35.878H246.874C247.064 35.878 247.27 35.8707 247.49 35.856C247.71 35.8413 247.9 35.8193 248.062 35.79C248.223 35.746 248.304 35.7093 248.304 35.68V29.344C248.304 28.86 248.245 28.464 248.128 28.156C248.025 27.8333 247.849 27.5987 247.6 27.452C247.365 27.3053 247.042 27.232 246.632 27.232C246.192 27.232 245.774 27.3273 245.378 27.518C244.982 27.7087 244.608 27.9947 244.256 28.376C243.904 28.7573 243.566 29.2267 243.244 29.784V28.112C243.596 27.5547 243.977 27.0927 244.388 26.726C244.798 26.3447 245.246 26.0587 245.73 25.868C246.228 25.6773 246.771 25.582 247.358 25.582C248.076 25.582 248.7 25.714 249.228 25.978C249.77 26.2273 250.188 26.6233 250.482 27.166C250.79 27.694 250.944 28.376 250.944 29.212V35.13C250.944 35.3207 251.01 35.4747 251.142 35.592C251.274 35.6947 251.457 35.768 251.692 35.812C251.941 35.856 252.22 35.878 252.528 35.878H252.572V37ZM257.727 25.802V33.414C257.727 33.9127 257.778 34.3233 257.881 34.646C257.983 34.954 258.152 35.1887 258.387 35.35C258.636 35.4967 258.966 35.57 259.377 35.57C259.817 35.57 260.227 35.482 260.609 35.306C260.99 35.1153 261.349 34.8367 261.687 34.47C262.039 34.0887 262.369 33.612 262.677 33.04L262.699 34.756C262.332 35.3133 261.951 35.7753 261.555 36.142C261.159 36.494 260.719 36.7653 260.235 36.956C259.765 37.132 259.237 37.22 258.651 37.22C257.947 37.22 257.323 37.088 256.781 36.824C256.238 36.56 255.82 36.164 255.527 35.636C255.233 35.0933 255.087 34.4113 255.087 33.59V27.892C255.087 27.5987 254.969 27.4007 254.735 27.298C254.515 27.1807 254.155 27.078 253.657 26.99L253.415 26.946V25.802H257.727ZM264.921 25.802V35.108C264.921 35.2987 264.987 35.4453 265.119 35.548C265.265 35.6507 265.456 35.724 265.691 35.768C265.925 35.812 266.197 35.8413 266.505 35.856H266.593V37H262.501V34.624L262.281 34.47V27.892C262.281 27.5987 262.149 27.3933 261.885 27.276C261.635 27.1587 261.261 27.0707 260.763 27.012L260.345 26.946V25.802H264.921ZM270.569 31.478C270.569 32.1527 270.65 32.7613 270.811 33.304C270.973 33.8467 271.207 34.3013 271.515 34.668C271.823 35.0347 272.19 35.3133 272.615 35.504C273.041 35.6947 273.517 35.79 274.045 35.79C274.617 35.79 275.109 35.68 275.519 35.46C275.93 35.2253 276.282 34.9467 276.575 34.624C276.869 34.2867 277.111 33.9493 277.301 33.612L278.467 34.558C278.189 35.0567 277.837 35.5113 277.411 35.922C276.986 36.318 276.48 36.6333 275.893 36.868C275.307 37.1027 274.61 37.22 273.803 37.22C272.659 37.22 271.64 36.9853 270.745 36.516C269.865 36.0467 269.169 35.3793 268.655 34.514C268.142 33.6487 267.885 32.622 267.885 31.434C267.885 30.2753 268.127 29.256 268.611 28.376C269.11 27.496 269.77 26.814 270.591 26.33C271.427 25.8313 272.366 25.582 273.407 25.582C274.258 25.582 274.999 25.714 275.629 25.978C276.275 26.242 276.81 26.638 277.235 27.166C277.675 27.694 278.005 28.3613 278.225 29.168C278.46 29.96 278.577 30.8913 278.577 31.962H270.173V30.598H276.509L275.937 31.148C275.923 30.4147 275.864 29.784 275.761 29.256C275.659 28.728 275.505 28.3027 275.299 27.98C275.094 27.6427 274.837 27.3933 274.529 27.232C274.221 27.0707 273.855 26.99 273.429 26.99C273.033 26.99 272.659 27.0853 272.307 27.276C271.955 27.4667 271.647 27.76 271.383 28.156C271.134 28.5373 270.936 29.0067 270.789 29.564C270.643 30.1067 270.569 30.7447 270.569 31.478ZM285.056 21.38H291.238V22.568H290.864C290.629 22.568 290.38 22.5753 290.116 22.59C289.852 22.6047 289.632 22.6267 289.456 22.656C289.28 22.6853 289.192 22.7293 289.192 22.788L292.184 35.372L291.942 35.394L295.242 21.38H298.102L301.534 35.306H301.314L304.108 22.964C304.108 22.876 304.02 22.8027 303.844 22.744C303.683 22.6853 303.477 22.6413 303.228 22.612C302.979 22.5827 302.729 22.568 302.48 22.568H302.15V21.38H307.056V22.568H306.946C306.594 22.568 306.293 22.634 306.044 22.766C305.795 22.8833 305.626 23.1327 305.538 23.514L302.414 37H299.422L296.078 23.272L296.276 23.294L293.02 37H289.962L286.596 23.338C286.493 22.986 286.325 22.7733 286.09 22.7C285.87 22.612 285.569 22.568 285.188 22.568H285.056V21.38ZM310.896 23.646C310.427 23.646 310.038 23.514 309.73 23.25C309.437 22.986 309.29 22.6193 309.29 22.15C309.29 21.6807 309.437 21.3213 309.73 21.072C310.038 20.808 310.427 20.676 310.896 20.676C311.38 20.676 311.769 20.808 312.062 21.072C312.37 21.3213 312.524 21.6807 312.524 22.15C312.524 22.6193 312.37 22.986 312.062 23.25C311.769 23.514 311.38 23.646 310.896 23.646ZM312.304 25.802V35.13C312.304 35.438 312.458 35.6433 312.766 35.746C313.074 35.834 313.455 35.878 313.91 35.878H313.932V37H308.036V35.878H308.058C308.527 35.878 308.909 35.834 309.202 35.746C309.51 35.6433 309.664 35.438 309.664 35.13V27.892C309.664 27.5987 309.547 27.4007 309.312 27.298C309.092 27.1807 308.74 27.078 308.256 26.99L308.036 26.946V25.802H312.304ZM314.553 27.166V25.912H314.641C315.037 25.912 315.382 25.8827 315.675 25.824C315.969 25.7653 316.189 25.6627 316.335 25.516C316.482 25.3547 316.555 25.1347 316.555 24.856L318.293 25.802H322.209V27.166H314.553ZM319.041 33.15C319.041 33.766 319.115 34.2647 319.261 34.646C319.423 35.0273 319.643 35.306 319.921 35.482C320.215 35.6433 320.552 35.724 320.933 35.724C321.241 35.724 321.52 35.6947 321.769 35.636C322.033 35.5773 322.253 35.5187 322.429 35.46V36.868C322.297 36.9267 322.129 36.978 321.923 37.022C321.733 37.0807 321.513 37.1247 321.263 37.154C321.029 37.198 320.765 37.22 320.471 37.22C319.753 37.22 319.085 37.1027 318.469 36.868C317.853 36.6187 317.355 36.2007 316.973 35.614C316.592 35.0273 316.401 34.2207 316.401 33.194V26.176L316.555 26V22.722H319.041V33.15ZM327.859 20.83V35.658C327.859 35.702 327.932 35.746 328.079 35.79C328.24 35.8193 328.431 35.8413 328.651 35.856C328.871 35.8707 329.069 35.878 329.245 35.878H329.311V37H323.591V35.878H323.613C323.921 35.878 324.192 35.856 324.427 35.812C324.676 35.768 324.867 35.6947 324.999 35.592C325.145 35.4747 325.219 35.3207 325.219 35.13V22.92C325.219 22.7293 325.167 22.5827 325.065 22.48C324.962 22.3627 324.808 22.2747 324.603 22.216C324.412 22.1427 324.148 22.0767 323.811 22.018L323.591 21.974V20.83H327.859ZM336.769 37H331.049V35.878H331.093C331.283 35.878 331.489 35.8707 331.709 35.856C331.929 35.8413 332.112 35.8193 332.259 35.79C332.42 35.7607 332.501 35.724 332.501 35.68V29.344C332.501 28.86 332.449 28.464 332.347 28.156C332.244 27.8333 332.068 27.5987 331.819 27.452C331.584 27.3053 331.261 27.232 330.851 27.232C330.396 27.232 329.971 27.3273 329.575 27.518C329.179 27.7087 328.805 27.9947 328.453 28.376C328.115 28.7573 327.785 29.2267 327.463 29.784V28.09C327.815 27.5327 328.189 27.0707 328.585 26.704C328.995 26.3373 329.443 26.0587 329.927 25.868C330.425 25.6773 330.968 25.582 331.555 25.582C332.273 25.582 332.904 25.714 333.447 25.978C333.989 26.2273 334.407 26.6233 334.701 27.166C335.009 27.694 335.163 28.376 335.163 29.212V35.13C335.163 35.438 335.309 35.6433 335.603 35.746C335.911 35.834 336.285 35.878 336.725 35.878H336.769V37ZM357.829 31.17V34.712C357.609 34.9907 357.301 35.2767 356.905 35.57C356.509 35.8633 356.032 36.1347 355.475 36.384C354.932 36.6333 354.338 36.8387 353.693 37C353.062 37.1467 352.387 37.22 351.669 37.22C350.481 37.22 349.395 37.0293 348.413 36.648C347.445 36.2667 346.609 35.724 345.905 35.02C345.201 34.3013 344.658 33.4507 344.277 32.468C343.895 31.4853 343.705 30.3927 343.705 29.19C343.705 28.0167 343.903 26.9387 344.299 25.956C344.695 24.9733 345.245 24.1227 345.949 23.404C346.653 22.6853 347.467 22.1353 348.391 21.754C349.329 21.358 350.341 21.16 351.427 21.16C352.424 21.16 353.282 21.3213 354.001 21.644C354.719 21.9667 355.313 22.414 355.783 22.986C356.252 23.558 356.604 24.2253 356.839 24.988L355.915 24.922L356.289 21.38H357.763V26.154H356.091C355.871 25.4647 355.555 24.8633 355.145 24.35C354.749 23.822 354.257 23.4113 353.671 23.118C353.084 22.8247 352.387 22.678 351.581 22.678C350.862 22.678 350.195 22.832 349.579 23.14C348.977 23.448 348.457 23.888 348.017 24.46C347.591 25.032 347.254 25.7213 347.005 26.528C346.77 27.32 346.653 28.2073 346.653 29.19C346.653 30.2167 346.763 31.1333 346.983 31.94C347.217 32.7467 347.555 33.4287 347.995 33.986C348.449 34.5433 348.992 34.9687 349.623 35.262C350.253 35.5553 350.965 35.702 351.757 35.702C352.417 35.702 352.974 35.6287 353.429 35.482C353.898 35.3207 354.279 35.1373 354.573 34.932C354.866 34.7267 355.086 34.558 355.233 34.426V31.17C355.233 30.8473 355.071 30.6347 354.749 30.532C354.441 30.4293 354.037 30.378 353.539 30.378H353.297V29.19H359.391V30.378H359.303C358.877 30.378 358.525 30.4293 358.247 30.532C357.968 30.6347 357.829 30.8473 357.829 31.17ZM373.073 31.39C373.073 32.534 372.824 33.546 372.325 34.426C371.826 35.306 371.13 35.9953 370.235 36.494C369.34 36.978 368.299 37.22 367.111 37.22C365.938 37.22 364.904 36.978 364.009 36.494C363.114 35.9953 362.41 35.306 361.897 34.426C361.398 33.546 361.149 32.534 361.149 31.39C361.149 30.5393 361.288 29.762 361.567 29.058C361.86 28.3393 362.271 27.7233 362.799 27.21C363.342 26.682 363.972 26.2787 364.691 26C365.424 25.7213 366.231 25.582 367.111 25.582C368.006 25.582 368.812 25.7213 369.531 26C370.264 26.2787 370.895 26.682 371.423 27.21C371.966 27.7233 372.376 28.3393 372.655 29.058C372.934 29.762 373.073 30.5393 373.073 31.39ZM363.899 31.39C363.899 32.2993 364.031 33.0913 364.295 33.766C364.559 34.426 364.926 34.9393 365.395 35.306C365.879 35.658 366.451 35.834 367.111 35.834C367.786 35.834 368.358 35.658 368.827 35.306C369.311 34.9393 369.678 34.426 369.927 33.766C370.191 33.0913 370.323 32.2993 370.323 31.39C370.323 30.4807 370.191 29.696 369.927 29.036C369.678 28.376 369.311 27.87 368.827 27.518C368.358 27.166 367.786 26.99 367.111 26.99C366.451 26.99 365.879 27.166 365.395 27.518C364.926 27.87 364.559 28.376 364.295 29.036C364.031 29.696 363.899 30.4807 363.899 31.39ZM386.823 31.39C386.823 32.534 386.574 33.546 386.075 34.426C385.576 35.306 384.88 35.9953 383.985 36.494C383.09 36.978 382.049 37.22 380.861 37.22C379.688 37.22 378.654 36.978 377.759 36.494C376.864 35.9953 376.16 35.306 375.647 34.426C375.148 33.546 374.899 32.534 374.899 31.39C374.899 30.5393 375.038 29.762 375.317 29.058C375.61 28.3393 376.021 27.7233 376.549 27.21C377.092 26.682 377.722 26.2787 378.441 26C379.174 25.7213 379.981 25.582 380.861 25.582C381.756 25.582 382.562 25.7213 383.281 26C384.014 26.2787 384.645 26.682 385.173 27.21C385.716 27.7233 386.126 28.3393 386.405 29.058C386.684 29.762 386.823 30.5393 386.823 31.39ZM377.649 31.39C377.649 32.2993 377.781 33.0913 378.045 33.766C378.309 34.426 378.676 34.9393 379.145 35.306C379.629 35.658 380.201 35.834 380.861 35.834C381.536 35.834 382.108 35.658 382.577 35.306C383.061 34.9393 383.428 34.426 383.677 33.766C383.941 33.0913 384.073 32.2993 384.073 31.39C384.073 30.4807 383.941 29.696 383.677 29.036C383.428 28.376 383.061 27.87 382.577 27.518C382.108 27.166 381.536 26.99 380.861 26.99C380.201 26.99 379.629 27.166 379.145 27.518C378.676 27.87 378.309 28.376 378.045 29.036C377.781 29.696 377.649 30.4807 377.649 31.39ZM400.421 27.606C399.805 27.5327 399.27 27.4887 398.815 27.474C398.375 27.4593 397.994 27.4887 397.671 27.562C397.363 27.6207 397.106 27.7527 396.901 27.958L396.571 27.694C396.791 27.2687 397.033 26.902 397.297 26.594C397.561 26.2713 397.854 26.0073 398.177 25.802C398.5 25.5967 398.844 25.4573 399.211 25.384C399.592 25.3107 399.996 25.296 400.421 25.34V27.606ZM393.755 33.59C392.846 33.59 392.032 33.4287 391.313 33.106C390.609 32.7833 390.059 32.3287 389.663 31.742C389.267 31.1407 389.069 30.4367 389.069 29.63C389.069 28.8087 389.267 28.0973 389.663 27.496C390.074 26.8947 390.631 26.4253 391.335 26.088C392.054 25.7507 392.86 25.582 393.755 25.582C394.664 25.582 395.471 25.7507 396.175 26.088C396.894 26.4253 397.458 26.8947 397.869 27.496C398.28 28.0973 398.485 28.8087 398.485 29.63C398.485 30.4367 398.28 31.1407 397.869 31.742C397.458 32.3287 396.894 32.7833 396.175 33.106C395.471 33.4287 394.664 33.59 393.755 33.59ZM393.755 32.248C394.21 32.248 394.598 32.1527 394.921 31.962C395.258 31.7567 395.515 31.4633 395.691 31.082C395.867 30.686 395.955 30.202 395.955 29.63C395.955 29.058 395.867 28.574 395.691 28.178C395.515 27.7673 395.258 27.4593 394.921 27.254C394.598 27.0487 394.21 26.946 393.755 26.946C393.315 26.946 392.934 27.0487 392.611 27.254C392.288 27.4593 392.032 27.7673 391.841 28.178C391.665 28.574 391.577 29.058 391.577 29.63C391.577 30.202 391.665 30.686 391.841 31.082C392.032 31.4633 392.288 31.7567 392.611 31.962C392.934 32.1527 393.315 32.248 393.755 32.248ZM393.271 42.192C392.259 42.192 391.342 42.104 390.521 41.928C389.714 41.752 389.076 41.4587 388.607 41.048C388.152 40.6373 387.925 40.0947 387.925 39.42C387.925 39.0533 388.02 38.7233 388.211 38.43C388.402 38.1513 388.702 37.8873 389.113 37.638C389.524 37.4033 390.052 37.1687 390.697 36.934L391.533 37.528C391.181 37.6893 390.895 37.858 390.675 38.034C390.47 38.2247 390.316 38.4153 390.213 38.606C390.11 38.8113 390.059 39.0313 390.059 39.266C390.059 39.6033 390.176 39.882 390.411 40.102C390.646 40.322 391.012 40.4907 391.511 40.608C392.01 40.7253 392.648 40.784 393.425 40.784H394.151C394.899 40.784 395.544 40.7033 396.087 40.542C396.644 40.3807 397.077 40.1533 397.385 39.86C397.693 39.5667 397.847 39.2293 397.847 38.848C397.847 38.4813 397.708 38.21 397.429 38.034C397.15 37.8727 396.637 37.792 395.889 37.792H390.719L390.631 37.682C390.147 37.462 389.758 37.2347 389.465 37C389.172 36.7653 388.959 36.516 388.827 36.252C388.71 35.9733 388.651 35.6727 388.651 35.35C388.651 34.9687 388.746 34.6167 388.937 34.294C389.142 33.9567 389.443 33.6413 389.839 33.348C390.235 33.0547 390.726 32.7907 391.313 32.556L392.281 33.128C391.973 33.2747 391.709 33.4213 391.489 33.568C391.269 33.7147 391.1 33.876 390.983 34.052C390.88 34.228 390.829 34.4113 390.829 34.602C390.829 34.8953 390.968 35.108 391.247 35.24C391.54 35.372 391.966 35.438 392.523 35.438H395.977C396.886 35.438 397.649 35.5407 398.265 35.746C398.881 35.9513 399.35 36.2667 399.673 36.692C399.996 37.1027 400.157 37.6233 400.157 38.254C400.157 39.1487 399.886 39.8893 399.343 40.476C398.815 41.0627 398.096 41.4953 397.187 41.774C396.292 42.0527 395.302 42.192 394.217 42.192H393.271ZM405.48 20.83V35.13C405.48 35.438 405.627 35.6433 405.92 35.746C406.214 35.834 406.595 35.878 407.064 35.878H407.086V37H401.19V35.878H401.234C401.704 35.878 402.085 35.834 402.378 35.746C402.672 35.6433 402.818 35.438 402.818 35.13V22.92C402.818 22.7293 402.767 22.5827 402.664 22.48C402.576 22.3627 402.43 22.2747 402.224 22.216C402.019 22.1427 401.748 22.0767 401.41 22.018L401.19 21.974V20.83H405.48ZM411.056 31.478C411.056 32.1527 411.136 32.7613 411.298 33.304C411.459 33.8467 411.694 34.3013 412.002 34.668C412.31 35.0347 412.676 35.3133 413.102 35.504C413.527 35.6947 414.004 35.79 414.532 35.79C415.104 35.79 415.595 35.68 416.006 35.46C416.416 35.2253 416.768 34.9467 417.062 34.624C417.355 34.2867 417.597 33.9493 417.788 33.612L418.954 34.558C418.675 35.0567 418.323 35.5113 417.898 35.922C417.472 36.318 416.966 36.6333 416.38 36.868C415.793 37.1027 415.096 37.22 414.29 37.22C413.146 37.22 412.126 36.9853 411.232 36.516C410.352 36.0467 409.655 35.3793 409.142 34.514C408.628 33.6487 408.372 32.622 408.372 31.434C408.372 30.2753 408.614 29.256 409.098 28.376C409.596 27.496 410.256 26.814 411.078 26.33C411.914 25.8313 412.852 25.582 413.894 25.582C414.744 25.582 415.485 25.714 416.116 25.978C416.761 26.242 417.296 26.638 417.722 27.166C418.162 27.694 418.492 28.3613 418.712 29.168C418.946 29.96 419.064 30.8913 419.064 31.962H410.66V30.598H416.996L416.424 31.148C416.409 30.4147 416.35 29.784 416.248 29.256C416.145 28.728 415.991 28.3027 415.786 27.98C415.58 27.6427 415.324 27.3933 415.016 27.232C414.708 27.0707 414.341 26.99 413.916 26.99C413.52 26.99 413.146 27.0853 412.794 27.276C412.442 27.4667 412.134 27.76 411.87 28.156C411.62 28.5373 411.422 29.0067 411.276 29.564C411.129 30.1067 411.056 30.7447 411.056 31.478Z" fill="#8A33FD"/>
<rect x="0.5" y="0.5" width="566" height="57" rx="7.5" stroke="#3C4242"/>
</svg>
