<svg width="967" height="726" viewBox="0 0 967 726" fill="none" xmlns="http://www.w3.org/2000/svg">
<path d="M340.142 361.669L355.929 434.269L415.278 366.751L439.453 388.12C439.453 388.12 355.373 513.282 321.818 505.102C288.263 496.923 297.401 449.442 290.269 398.405C283.138 347.367 340.142 361.669 340.142 361.669Z" fill="white"/>
<path d="M325.057 506.7C323.869 506.701 322.684 506.563 321.527 506.288C295.975 500.045 294.403 472.408 292.517 437.415C291.816 424.904 291.067 411.981 289.206 398.574C287.199 384.223 289.979 373.527 297.498 366.775C312.22 353.562 339.417 360.193 340.553 360.483C340.77 360.544 340.967 360.662 341.124 360.823C341.281 360.984 341.392 361.184 341.448 361.403L356.726 431.583L414.48 365.856C414.697 365.612 415.001 365.464 415.326 365.444C415.643 365.428 415.954 365.532 416.197 365.735L440.372 387.127C440.592 387.32 440.734 387.586 440.77 387.877C440.805 388.167 440.732 388.461 440.565 388.7C437.036 393.758 360.764 506.675 325.057 506.7ZM323.655 361.04C315.363 361.04 305.645 362.589 298.996 368.59C292.348 374.592 289.592 384.756 291.478 398.235C293.364 411.715 294.089 424.71 294.814 437.27C296.748 471.271 298.295 498.109 322.083 503.941C335.307 507.135 359.555 488.138 392.191 448.91C414.722 421.83 434.159 393.589 437.761 388.41L415.351 368.518L356.823 435.14C356.677 435.311 356.487 435.437 356.273 435.505C356.06 435.574 355.832 435.581 355.614 435.527C355.395 435.471 355.196 435.355 355.038 435.193C354.88 435.031 354.77 434.828 354.72 434.608L339.103 362.782C334.027 361.671 328.85 361.087 323.655 361.04Z" fill="#3C4242"/>
<path d="M146.525 575.96C141.69 608.678 142.439 617.681 142.439 617.681L342.898 613.664L316.523 498.98L162.819 515.46C155.241 534.985 149.779 555.268 146.525 575.96Z" fill="#3C4242"/>
<path d="M142.439 618.891C142.137 618.898 141.843 618.789 141.619 618.587C141.394 618.384 141.255 618.103 141.23 617.802C141.23 617.415 140.457 608.267 145.316 575.791C148.605 555.001 154.1 534.623 161.707 515C161.791 514.798 161.927 514.623 162.101 514.491C162.275 514.359 162.481 514.276 162.698 514.25L316.378 497.77C316.671 497.733 316.968 497.806 317.209 497.976C317.451 498.147 317.62 498.401 317.684 498.689L344.083 613.397C344.123 613.574 344.122 613.757 344.08 613.934C344.038 614.11 343.956 614.274 343.841 614.414C343.735 614.557 343.596 614.674 343.437 614.754C343.277 614.833 343.101 614.875 342.922 614.874L142.463 618.891H142.439ZM147.709 576.154C143.817 602.144 143.551 613.18 143.6 616.447L341.375 612.502L315.581 500.287L163.689 516.573C156.305 535.822 150.95 555.791 147.709 576.154Z" fill="#3C4242"/>
<path d="M144.421 563.691L332.382 542.516C314.879 430.687 305.959 489.808 327.112 385.216L349.401 379.166C339.054 325.127 313.622 301.411 313.622 301.411C288.794 256.665 228.26 282.85 228.26 282.85C228.26 282.85 158.83 288.416 140.916 348.48C129.046 388.216 149.426 443.634 151.964 492.01C152.665 505.538 147.999 504.981 144.421 563.691Z" fill="#8A33FD"/>
<path d="M280.043 311.527C273.057 310.462 266.336 309.276 259.108 311.212C248.374 314.14 238.921 320.36 227.873 322.949C216.076 325.684 203.215 325.78 191.152 326.337C187.622 326.506 191.442 330.983 188.396 329.168C177.686 322.78 176.84 308.235 175.849 297.321C173.218 272.104 174.031 246.645 178.266 221.648C182.328 199.868 186.534 179.225 207.639 168.093C223.014 159.986 244.627 155.146 261.477 161.148C278.327 167.149 292.397 182.565 298.271 199.626C304.774 218.502 306.902 237.644 317.829 254.923C322.664 262.546 328.635 269.975 329.916 278.905C331.318 289.674 324.936 300.516 315.774 306.324C306.611 312.132 295.177 313.584 284.346 312.132C282.847 311.962 281.445 311.744 280.043 311.527Z" fill="white"/>
<path d="M189.411 330.814C188.822 330.751 188.257 330.543 187.767 330.209C176.961 323.772 175.68 309.905 174.761 298.749V297.418C172.199 268.789 172.996 243.936 177.179 221.406C181.095 200.376 185.156 178.62 207.18 167.004C221.032 159.744 243.708 153.476 261.985 159.986C278.907 166.012 293.243 181.04 299.504 199.214C301.632 205.361 303.3 211.605 304.919 217.655C308.401 230.553 311.664 242.726 318.941 254.245C319.811 255.649 320.73 257.028 321.648 258.408C325.807 264.675 330.11 271.161 331.077 278.736C332.479 289.384 326.58 300.879 316.402 307.316C305.524 314.213 292.904 314.382 284.25 313.317L279.922 312.688L278.883 312.543C272.331 311.527 266.118 310.583 259.543 312.374C254.575 313.851 249.726 315.703 245.038 317.915C239.601 320.495 233.936 322.561 228.115 324.086C217.834 326.123 207.385 327.192 196.905 327.281L191.152 327.523C191.001 327.487 190.843 327.487 190.692 327.523C190.65 327.804 190.65 328.089 190.692 328.37C190.813 328.735 190.823 329.128 190.719 329.499C190.616 329.87 190.405 330.201 190.112 330.451C189.916 330.634 189.674 330.759 189.411 330.814ZM244.844 159.72C232.068 160.01 219.533 163.256 208.219 169.206C187.235 180.266 183.295 201.417 179.475 221.89C175.317 244.202 174.64 268.838 177.058 297.249L177.179 298.58C178.097 308.913 179.209 321.715 188.323 327.62C188.323 327.04 188.519 326.477 188.879 326.022C189.157 325.709 189.5 325.46 189.885 325.292C190.269 325.125 190.685 325.044 191.103 325.054L196.857 324.812C207.177 324.786 217.471 323.798 227.608 321.86C233.248 320.359 238.735 318.334 243.998 315.81C248.784 313.561 253.729 311.668 258.793 310.147C265.901 308.235 272.356 309.228 279.173 310.147L280.213 310.317C281.615 310.51 283.017 310.728 284.443 310.897C292.735 311.938 304.75 311.793 315.025 305.259C324.404 299.33 329.868 288.779 328.587 279.05C327.668 272.032 323.534 265.789 319.545 259.69C318.627 258.287 317.684 256.883 316.789 255.479C309.319 243.646 305.862 230.699 302.502 218.211C300.882 212.21 299.214 206.111 297.135 199.916C291.091 182.42 277.287 167.972 261.066 162.188C255.837 160.454 250.352 159.62 244.844 159.72Z" fill="#3C4242"/>
<path d="M288.19 210.976C288.19 210.976 300.664 240.016 296.942 262.764C296.064 269.138 293.348 275.117 289.128 279.97C284.907 284.823 279.364 288.338 273.177 290.085L275.595 329.943C275.595 329.943 277.07 350.319 251.903 348.746C244.622 348.277 237.58 345.957 231.442 342.007C225.304 338.056 220.274 332.605 216.826 326.168L209.355 253.059C209.355 253.059 236.601 234.982 232.491 208.822C232.66 208.822 267.303 222.979 288.19 210.976Z" fill="white"/>
<path d="M254.78 350.029H252C244.507 349.503 237.268 347.089 230.957 343.01C224.647 338.931 219.469 333.32 215.907 326.7C215.886 326.564 215.886 326.425 215.907 326.289L208.437 253.18C208.423 252.959 208.468 252.738 208.565 252.538C208.662 252.339 208.81 252.168 208.993 252.043C209.235 251.874 235.585 234.087 231.572 209.015C231.545 208.803 231.574 208.588 231.655 208.39C231.736 208.193 231.867 208.019 232.036 207.888C232.204 207.756 232.403 207.67 232.614 207.639C232.826 207.607 233.041 207.631 233.241 207.709C233.579 207.709 267.569 221.478 287.707 209.911C287.864 209.845 288.032 209.811 288.202 209.811C288.373 209.811 288.541 209.845 288.698 209.911C289.018 210.035 289.278 210.277 289.423 210.588C289.931 211.774 301.994 240.137 298.247 263.054C297.335 269.474 294.637 275.507 290.46 280.463C286.283 285.419 280.796 289.097 274.628 291.078L277.046 329.967C277.145 332.579 276.728 335.184 275.819 337.634C274.911 340.084 273.528 342.331 271.751 344.245C267.811 348.069 262.13 350.029 254.78 350.029ZM218.179 325.829C221.565 332.022 226.453 337.263 232.393 341.069C238.333 344.875 245.134 347.124 252.17 347.609C260.123 348.117 266.094 346.399 269.938 342.551C273.028 339.15 274.683 334.684 274.556 330.088L272.138 290.231C272.124 289.944 272.211 289.661 272.383 289.432C272.555 289.202 272.802 289.039 273.081 288.972C279.049 287.32 284.397 283.94 288.453 279.255C292.509 274.571 295.092 268.791 295.878 262.643C299.069 243.041 289.979 218.478 287.707 212.742C269.116 222.422 241.774 213.492 234.232 210.758C236.649 234.087 214.892 250.857 210.927 253.713L218.179 325.829Z" fill="#3C4242"/>
<path d="M274.725 264.966C272.69 264.95 270.661 264.764 268.657 264.409C268.501 264.377 268.354 264.315 268.222 264.226C268.09 264.137 267.978 264.023 267.89 263.891C267.803 263.758 267.742 263.61 267.712 263.454C267.682 263.298 267.682 263.137 267.714 262.981C267.743 262.824 267.803 262.674 267.891 262.541C267.979 262.407 268.093 262.293 268.226 262.205C268.36 262.117 268.509 262.057 268.666 262.028C268.823 261.999 268.985 262.002 269.14 262.038C269.14 262.038 277.191 263.586 280.986 261.312C281.566 258.166 273.951 247.711 268.391 241.25C268.179 241.006 268.073 240.688 268.096 240.366C268.119 240.043 268.268 239.743 268.512 239.532C268.756 239.32 269.073 239.214 269.395 239.236C269.717 239.259 270.017 239.409 270.228 239.653C272.646 242.411 284.298 256.375 283.476 261.433C283.43 261.824 283.295 262.2 283.081 262.531C282.867 262.863 282.581 263.141 282.243 263.344C279.92 264.528 277.329 265.087 274.725 264.966Z" fill="#3C4242"/>
<path d="M265.925 277.985C264.458 277.988 262.993 277.858 261.549 277.598C254.698 276.381 248.512 272.74 244.119 267.337C243.974 267.055 243.946 266.726 244.041 266.422C244.136 266.119 244.346 265.865 244.627 265.716C244.91 265.568 245.24 265.535 245.547 265.625C245.853 265.716 246.113 265.922 246.271 266.2C250.34 270.965 255.938 274.165 262.105 275.251C270.277 276.582 278.399 273.581 286.28 266.321C286.394 266.2 286.531 266.103 286.683 266.037C286.835 265.971 286.999 265.938 287.164 265.938C287.33 265.938 287.494 265.972 287.646 266.039C287.798 266.105 287.935 266.202 288.047 266.323C288.16 266.444 288.247 266.588 288.303 266.744C288.358 266.901 288.38 267.067 288.369 267.232C288.357 267.398 288.312 267.559 288.235 267.706C288.159 267.853 288.053 267.983 287.924 268.088C280.769 274.67 273.419 277.985 265.925 277.985Z" fill="#3C4242"/>
<path d="M273.178 290.085C273.178 290.085 252.097 294.127 239.671 291.779C239.671 291.779 254.998 322.32 275.208 320.819L273.178 290.085Z" fill="#3C4242"/>
<path d="M273.83 322.126C253.838 322.126 239.26 293.57 238.632 292.312C238.537 292.111 238.498 291.887 238.519 291.666C238.54 291.444 238.621 291.233 238.752 291.053C238.884 290.87 239.066 290.728 239.276 290.647C239.487 290.565 239.716 290.547 239.937 290.594C252.025 292.868 272.791 288.948 273.008 288.9C273.177 288.867 273.352 288.872 273.519 288.914C273.686 288.956 273.841 289.033 273.975 289.142C274.109 289.246 274.219 289.378 274.298 289.528C274.377 289.678 274.424 289.843 274.435 290.013L276.465 320.771C276.479 320.93 276.46 321.09 276.412 321.242C276.363 321.394 276.284 321.535 276.181 321.656C276.078 321.777 275.951 321.877 275.809 321.95C275.667 322.022 275.512 322.066 275.353 322.078L273.83 322.126ZM241.968 293.328C245.739 299.935 258.334 319.706 273.855 319.706L271.993 291.513C267.569 292.312 252.726 294.635 241.968 293.328Z" fill="#3C4242"/>
<path d="M395.189 291.489L447.576 288.924L421.322 400.099L364.994 405.64L395.189 291.489Z" fill="#3C4242"/>
<path d="M365.043 406.85C364.869 406.854 364.696 406.818 364.537 406.747C364.379 406.676 364.237 406.571 364.124 406.439C363.995 406.288 363.903 406.108 363.857 405.914C363.811 405.721 363.811 405.519 363.858 405.326L394.053 291.199C394.116 290.949 394.258 290.726 394.459 290.564C394.659 290.403 394.907 290.311 395.165 290.303L447.528 287.714C447.716 287.698 447.905 287.73 448.078 287.806C448.252 287.882 448.403 288 448.519 288.149C448.641 288.295 448.727 288.467 448.769 288.652C448.812 288.838 448.809 289.03 448.761 289.214L422.531 400.389C422.471 400.634 422.337 400.855 422.146 401.019C421.955 401.184 421.718 401.285 421.467 401.309L365.043 406.85ZM396.18 292.675L366.638 404.261L420.403 398.985L446.077 290.206L396.18 292.675Z" fill="#3C4242"/>
<path d="M327.112 386.45C326.804 386.45 326.507 386.333 326.282 386.121C326.057 385.91 325.922 385.621 325.903 385.312C324.853 369.292 321.313 353.534 315.411 338.606C315.281 338.314 315.271 337.982 315.384 337.683C315.497 337.383 315.724 337.141 316.016 337.009C316.16 336.941 316.316 336.903 316.475 336.896C316.634 336.89 316.793 336.916 316.942 336.972C317.091 337.029 317.227 337.115 317.342 337.225C317.457 337.335 317.549 337.468 317.611 337.614C323.636 352.801 327.25 368.838 328.321 385.143C328.341 385.467 328.233 385.785 328.02 386.029C327.808 386.274 327.508 386.425 327.185 386.45H327.112Z" fill="#3C4242"/>
<path d="M244.917 239.338C244.797 239.361 244.674 239.361 244.554 239.338C244.251 239.243 243.997 239.032 243.848 238.752C243.699 238.471 243.666 238.142 243.757 237.838C244.741 234.717 246.912 232.109 249.8 230.578C251.254 230.01 252.815 229.775 254.371 229.888C255.926 230.001 257.437 230.46 258.793 231.231C259.059 231.382 259.258 231.629 259.349 231.921C259.441 232.213 259.418 232.528 259.286 232.804C259.155 233.08 258.923 233.296 258.639 233.408C258.355 233.521 258.038 233.521 257.754 233.409C256.705 232.802 255.535 232.433 254.328 232.328C253.121 232.224 251.905 232.386 250.767 232.804C248.546 234.009 246.869 236.017 246.077 238.418C246.013 238.679 245.864 238.91 245.654 239.077C245.444 239.243 245.185 239.335 244.917 239.338Z" fill="#3C4242"/>
<path d="M278.399 232.175H278.182C277.866 232.11 277.588 231.925 277.408 231.658C277.227 231.391 277.158 231.064 277.215 230.747C277.405 229.752 277.822 228.815 278.435 228.009C279.047 227.203 279.838 226.55 280.744 226.101C282.872 225.254 285.579 225.931 288.456 228.085C288.686 228.282 288.834 228.558 288.87 228.858C288.906 229.159 288.829 229.462 288.653 229.709C288.477 229.955 288.215 230.126 287.919 230.188C287.623 230.251 287.314 230.199 287.054 230.045C284.806 228.424 282.944 227.843 281.663 228.327C281.132 228.629 280.674 229.043 280.319 229.54C279.964 230.038 279.721 230.606 279.608 231.207C279.547 231.482 279.394 231.728 279.174 231.904C278.955 232.08 278.681 232.176 278.399 232.175Z" fill="#3C4242"/>
<path d="M174.471 259.884C174.471 259.884 177.42 268.741 168.065 294.393C158.709 320.045 159.096 339.695 182.57 343.229C206.044 346.762 219.775 343.93 222.869 323.869C225.964 303.807 207.905 281.785 207.905 281.785" fill="white"/>
<path d="M197.22 345.721C192.254 345.659 187.3 345.222 182.4 344.414C173.794 343.132 167.702 339.574 164.342 333.912C159.362 325.49 160.208 312.422 166.928 293.957C175.946 269.249 173.359 260.344 173.335 260.271C173.284 260.112 173.265 259.945 173.279 259.778C173.293 259.612 173.339 259.45 173.415 259.302C173.492 259.154 173.596 259.022 173.724 258.914C173.851 258.806 173.998 258.725 174.157 258.674C174.315 258.623 174.483 258.604 174.649 258.618C174.815 258.632 174.977 258.678 175.125 258.754C175.273 258.831 175.405 258.936 175.512 259.063C175.62 259.19 175.701 259.338 175.752 259.497C175.752 259.884 178.726 269.177 169.322 294.804C162.867 312.543 162.069 324.933 166.542 332.677C169.563 337.784 174.906 340.833 182.884 342.019C205.197 345.382 218.735 343.471 221.806 323.748C224.779 304.557 207.301 282.753 207.107 282.608C207.005 282.486 206.928 282.346 206.881 282.194C206.834 282.042 206.818 281.883 206.834 281.725C206.85 281.567 206.897 281.414 206.973 281.274C207.049 281.135 207.152 281.012 207.276 280.914C207.524 280.713 207.841 280.618 208.157 280.65C208.474 280.682 208.766 280.837 208.969 281.083C209.718 282.003 227.342 303.928 224.175 324.207C221.516 340.567 211.749 345.721 197.22 345.721Z" fill="#3C4242"/>
<path d="M824.488 108.319H484.032C480.018 108.313 476.165 109.898 473.315 112.728C470.465 115.558 468.851 119.402 468.826 123.42V227.214L430.146 274.646L468.826 260.9V552.68C468.826 556.717 470.428 560.588 473.28 563.443C476.131 566.298 479.999 567.901 484.032 567.901H824.488C828.521 567.901 832.389 566.298 835.241 563.443C838.092 560.588 839.694 556.717 839.694 552.68V123.42C839.663 119.404 838.046 115.563 835.198 112.735C832.35 109.906 828.5 108.319 824.488 108.319Z" fill="white"/>
<path d="M824.575 569.111H484.119C479.767 569.105 475.596 567.372 472.519 564.292C469.442 561.211 467.71 557.036 467.704 552.68V262.594L430.644 275.88C430.395 275.971 430.122 275.978 429.869 275.9C429.616 275.821 429.395 275.661 429.242 275.444C429.085 275.235 429 274.98 429 274.718C429 274.457 429.085 274.202 429.242 273.992L467.656 226.875V123.42C467.662 119.066 469.394 114.893 472.472 111.817C475.55 108.74 479.721 107.012 484.07 107.012H824.575C828.925 107.012 833.096 108.74 836.174 111.817C839.251 114.893 840.984 119.066 840.99 123.42V552.68C840.984 557.036 839.252 561.211 836.175 564.292C833.098 567.372 828.927 569.105 824.575 569.111ZM468.913 259.69C469.163 259.691 469.407 259.767 469.614 259.908C469.773 260.019 469.903 260.168 469.991 260.341C470.08 260.514 470.125 260.706 470.121 260.9V552.68C470.128 556.394 471.605 559.954 474.228 562.58C476.852 565.207 480.408 566.685 484.119 566.691H824.575C828.286 566.685 831.842 565.207 834.466 562.58C837.089 559.954 838.566 556.394 838.573 552.68V123.42C838.566 119.708 837.089 116.15 834.464 113.528C831.84 110.905 828.283 109.432 824.575 109.432H484.119C480.411 109.432 476.854 110.905 474.23 113.528C471.605 116.15 470.128 119.708 470.121 123.42V227.214C470.118 227.486 470.025 227.75 469.856 227.964L433.907 272.056L468.502 259.763C468.634 259.715 468.773 259.691 468.913 259.69Z" fill="#3C4242"/>
<path d="M427.076 405.64C446.416 378.173 446.416 378.173 445.328 368.711C444.482 361.451 440.855 355.087 437.06 349.085C432.225 341.438 421.66 329.725 417.72 345.334C415.762 352.836 412.74 362.056 414.819 369.752C416.753 376.867 422.071 382.699 424.997 389.378" fill="white"/>
<path d="M427.076 406.85C426.825 406.849 426.581 406.773 426.374 406.633C426.116 406.443 425.941 406.161 425.886 405.844C425.832 405.528 425.903 405.203 426.084 404.939C445.183 377.859 445.183 377.859 444.119 368.856C443.297 361.596 439.501 355.208 436.02 349.738C432.539 344.269 427.027 338.389 423.449 338.921C421.032 339.308 419.533 342.793 418.783 345.649L418.082 348.262C416.245 355.135 414.118 362.927 415.907 369.437C417.235 373.504 419.14 377.359 421.564 380.884C423.225 383.45 424.711 386.126 426.012 388.894C426.14 389.189 426.146 389.523 426.028 389.823C425.91 390.122 425.678 390.363 425.383 390.491C425.088 390.62 424.755 390.625 424.455 390.507C424.156 390.389 423.916 390.157 423.788 389.862C422.528 387.195 421.091 384.616 419.485 382.142C416.936 378.417 414.941 374.341 413.562 370.042C411.628 362.903 413.828 354.772 415.762 347.609L416.463 345.019C417.792 339.841 420.016 336.985 423.062 336.501C429.372 335.509 436.141 345.358 438.075 348.407C441.701 354.119 445.618 360.846 446.536 368.542C447.697 378.464 447.697 378.464 428.067 406.318C427.958 406.482 427.811 406.617 427.638 406.709C427.465 406.802 427.272 406.851 427.076 406.85Z" fill="#3C4242"/>
<path d="M189.629 442.86C189.629 442.86 276.417 523.156 301.22 513.984C326.024 504.812 354.913 466.528 371.932 439.835C388.952 413.142 410.999 376.262 414.239 359.83C417.478 343.398 412.401 331.129 406.261 334.202C400.12 337.275 377.13 359.806 377.13 359.806C377.13 359.806 384.89 337.784 381.264 337.687C377.638 337.59 366.952 347.367 363.399 378.827L289.665 453.847L229.227 394.847" fill="white"/>
<path d="M296.821 515.871C267.158 515.871 192.167 446.829 188.807 443.731C188.693 443.619 188.604 443.485 188.542 443.337C188.481 443.19 188.449 443.032 188.449 442.872C188.449 442.712 188.481 442.554 188.542 442.407C188.604 442.259 188.693 442.125 188.807 442.013C189.037 441.79 189.345 441.665 189.665 441.665C189.985 441.665 190.293 441.79 190.523 442.013C190.741 442.231 212.474 462.293 236.939 480.951C269.044 505.441 291.14 516.501 300.882 512.895C328.998 502.513 361.658 453.895 370.99 439.23C388.468 411.811 409.96 375.729 413.127 359.66C415.544 347.923 413.32 338.219 409.911 335.63C409.502 335.272 408.991 335.049 408.45 334.993C407.909 334.936 407.364 335.049 406.889 335.315C400.967 338.268 378.266 360.532 378.024 360.749C377.834 360.942 377.583 361.062 377.313 361.088C377.044 361.115 376.774 361.046 376.55 360.895C376.317 360.754 376.14 360.538 376.048 360.283C375.955 360.027 375.953 359.748 376.042 359.491C379.016 351.045 381.627 341.075 381.022 338.994C378.605 339.502 368.234 347.343 364.656 378.899C364.613 379.168 364.496 379.42 364.317 379.625L290.584 454.645C290.473 454.758 290.342 454.848 290.196 454.909C290.051 454.97 289.895 455.001 289.737 455.001C289.58 455.001 289.424 454.97 289.278 454.909C289.133 454.848 289.002 454.758 288.891 454.645L228.454 395.646C228.223 395.421 228.091 395.114 228.086 394.792C228.082 394.469 228.205 394.159 228.43 393.928C228.654 393.697 228.961 393.564 229.283 393.56C229.605 393.555 229.915 393.679 230.146 393.903L289.834 451.983L362.359 378.101C366.01 346.81 376.864 336.428 381.336 336.428C381.651 336.427 381.961 336.506 382.236 336.659C382.511 336.811 382.742 337.032 382.908 337.3C384.528 339.72 382.062 348.77 379.91 355.425C386.679 348.916 400.991 335.436 405.802 333.04C406.683 332.573 407.681 332.375 408.673 332.469C409.666 332.564 410.609 332.947 411.386 333.573C416.076 337.179 417.817 348.286 415.496 359.999C412.256 376.455 390.62 412.804 373.02 440.416C360.933 459.413 329.747 504.691 301.704 515.049C300.139 515.616 298.485 515.895 296.821 515.871Z" fill="#3C4242"/>
<path d="M654.248 311.962C641.86 311.962 629.749 308.285 619.449 301.395C609.148 294.505 601.119 284.712 596.379 273.255C591.638 261.798 590.397 249.19 592.814 237.027C595.231 224.864 601.197 213.692 609.957 204.923C618.717 196.154 629.878 190.182 642.028 187.763C654.179 185.343 666.773 186.585 678.218 191.331C689.664 196.076 699.446 204.113 706.329 214.425C713.212 224.736 716.885 236.859 716.885 249.26C716.866 265.884 710.261 281.821 698.518 293.576C686.776 305.331 670.855 311.943 654.248 311.962ZM654.248 189.002C642.337 189.002 630.693 192.538 620.789 199.163C610.886 205.788 603.167 215.204 598.61 226.221C594.053 237.237 592.861 249.359 595.187 261.054C597.513 272.748 603.25 283.489 611.675 291.919C620.099 300.348 630.831 306.088 642.515 308.411C654.198 310.734 666.307 309.537 677.31 304.971C688.313 300.404 697.717 292.674 704.331 282.758C710.945 272.841 714.473 261.184 714.468 249.26C714.442 233.282 708.089 217.967 696.8 206.671C685.512 195.375 670.209 189.021 654.248 189.002Z" fill="#D1D3D4"/>
<path d="M797.944 145.757C797.787 145.763 797.631 145.736 797.485 145.678C797.339 145.62 797.207 145.531 797.098 145.418C796.985 145.305 796.895 145.171 796.834 145.024C796.772 144.877 796.741 144.718 796.741 144.559C796.741 144.399 796.772 144.241 796.834 144.093C796.895 143.946 796.985 143.812 797.098 143.7L812.619 128.26C812.845 128.038 813.148 127.914 813.465 127.914C813.781 127.914 814.085 128.038 814.311 128.26C814.424 128.372 814.514 128.506 814.575 128.654C814.637 128.801 814.668 128.959 814.668 129.119C814.668 129.279 814.637 129.437 814.575 129.584C814.514 129.732 814.424 129.866 814.311 129.978L798.791 145.515C798.673 145.61 798.538 145.681 798.392 145.723C798.247 145.765 798.094 145.776 797.944 145.757Z" fill="#D1D3D4"/>
<path d="M813.465 145.757C813.308 145.763 813.151 145.736 813.005 145.678C812.86 145.62 812.728 145.531 812.619 145.418L797.098 129.881C796.985 129.769 796.895 129.635 796.834 129.488C796.772 129.34 796.741 129.182 796.741 129.022C796.741 128.863 796.772 128.704 796.834 128.557C796.895 128.41 796.985 128.276 797.098 128.163C797.324 127.942 797.628 127.817 797.944 127.817C798.261 127.817 798.565 127.942 798.791 128.163L814.311 143.7C814.424 143.812 814.514 143.946 814.575 144.093C814.637 144.241 814.668 144.399 814.668 144.559C814.668 144.718 814.637 144.877 814.575 145.024C814.514 145.171 814.424 145.305 814.311 145.418C814.202 145.531 814.07 145.62 813.924 145.678C813.778 145.736 813.622 145.763 813.465 145.757Z" fill="#D1D3D4"/>
<path d="M698.246 233.457C697.818 234.15 697.333 234.806 696.796 235.418L645.255 286.939C644.99 287.339 644.631 287.666 644.209 287.893C643.787 288.12 643.316 288.238 642.837 288.238C642.359 288.238 641.887 288.12 641.466 287.893C641.044 287.666 640.684 287.339 640.42 286.939C630.75 276.969 621.08 266.982 611.41 256.98C611.045 256.706 610.752 256.347 610.555 255.935C610.359 255.523 610.265 255.069 610.281 254.612C610.298 254.156 610.425 253.71 610.651 253.313C610.877 252.917 611.195 252.58 611.579 252.333L618.832 245.775C619.092 245.448 619.423 245.183 619.8 245.001C620.176 244.819 620.589 244.725 621.007 244.725C621.426 244.725 621.838 244.819 622.215 245.001C622.592 245.183 622.923 245.448 623.183 245.775L640.323 263.248C642.112 265.063 643.442 265.087 645.158 263.248L685.192 223.342C685.453 222.937 685.811 222.605 686.233 222.374C686.655 222.144 687.128 222.023 687.609 222.023C688.09 222.023 688.564 222.144 688.986 222.374C689.408 222.605 689.766 222.937 690.027 223.342C692.299 225.617 694.572 227.891 696.796 230.19C697.309 230.793 697.778 231.432 698.198 232.102L698.246 233.457Z" fill="#8A33FD"/>
<path d="M249.945 255.649C246.734 255.667 243.584 254.769 240.864 253.062C238.143 251.354 235.964 248.907 234.58 246.006C233.197 243.105 232.667 239.87 233.052 236.679C233.436 233.488 234.72 230.472 236.753 227.984C238.787 225.496 241.485 223.638 244.533 222.628C247.582 221.617 250.855 221.496 253.969 222.278C257.084 223.06 259.912 224.713 262.123 227.044C264.335 229.375 265.838 232.288 266.457 235.442C267.323 239.813 266.433 244.35 263.98 248.069C261.527 251.787 257.71 254.389 253.354 255.31C252.231 255.531 251.09 255.644 249.945 255.649ZM249.945 224.407C248.979 224.396 248.014 224.494 247.069 224.697C244.239 225.241 241.635 226.617 239.59 228.648C237.544 230.68 236.149 233.275 235.583 236.103C235.017 238.931 235.305 241.864 236.411 244.528C237.517 247.192 239.39 249.465 241.792 251.059C244.193 252.652 247.015 253.494 249.896 253.476C252.777 253.458 255.588 252.581 257.97 250.958C260.351 249.334 262.196 247.037 263.269 244.36C264.341 241.683 264.592 238.747 263.991 235.926C263.31 232.696 261.55 229.796 259.001 227.702C256.452 225.608 253.267 224.445 249.97 224.407H249.945Z" fill="#3C4242"/>
<path d="M285.604 248.34C282.581 248.304 279.623 247.457 277.038 245.889C274.453 244.32 272.334 242.088 270.903 239.422C269.472 236.757 268.78 233.756 268.899 230.733C269.019 227.709 269.945 224.773 271.582 222.229C273.434 219.464 276.058 217.307 279.127 216.027C282.196 214.747 285.574 214.4 288.839 215.03C292.104 215.66 295.111 217.239 297.485 219.569C299.859 221.899 301.495 224.878 302.188 228.133C303.053 232.505 302.163 237.041 299.711 240.76C297.258 244.479 293.44 247.081 289.085 248.002C287.938 248.227 286.772 248.34 285.604 248.34ZM285.604 217.098C284.629 217.099 283.658 217.196 282.703 217.389C279.873 217.933 277.269 219.308 275.224 221.34C273.178 223.371 271.783 225.967 271.217 228.795C270.651 231.623 270.939 234.556 272.045 237.22C273.151 239.883 275.024 242.157 277.425 243.75C279.827 245.344 282.649 246.186 285.53 246.167C288.411 246.149 291.222 245.273 293.604 243.649C295.985 242.026 297.83 239.729 298.902 237.052C299.975 234.375 300.226 231.438 299.625 228.617C298.945 225.392 297.188 222.494 294.644 220.401C292.1 218.307 288.921 217.142 285.628 217.098H285.604Z" fill="#3C4242"/>
<path d="M264.982 235.466C264.761 235.471 264.543 235.412 264.353 235.297C264.217 235.217 264.098 235.111 264.003 234.984C263.909 234.858 263.84 234.714 263.802 234.56C263.764 234.407 263.756 234.248 263.781 234.091C263.805 233.935 263.86 233.786 263.943 233.651C264.282 233.107 264.727 232.637 265.25 232.266C265.773 231.896 266.364 231.633 266.989 231.494C267.615 231.354 268.261 231.34 268.892 231.453C269.523 231.566 270.125 231.803 270.663 232.151C270.907 232.318 271.082 232.569 271.153 232.856C271.225 233.144 271.189 233.447 271.052 233.71C270.915 233.972 270.686 234.175 270.41 234.28C270.133 234.385 269.828 234.385 269.551 234.28C267.134 233.046 266.118 234.692 266.022 234.885C265.913 235.064 265.76 235.211 265.578 235.313C265.396 235.414 265.191 235.467 264.982 235.466Z" fill="#3C4242"/>
<path d="M234.062 238.854L205.028 242.387L234.062 238.854Z" fill="white"/>
<path d="M205.028 243.597C204.707 243.616 204.392 243.507 204.152 243.294C203.912 243.081 203.766 242.781 203.747 242.46C203.728 242.139 203.836 241.823 204.05 241.583C204.263 241.342 204.562 241.196 204.883 241.177L233.893 237.62C234.051 237.6 234.211 237.611 234.364 237.654C234.517 237.697 234.659 237.771 234.783 237.87C234.907 237.969 235.01 238.093 235.086 238.233C235.161 238.373 235.208 238.526 235.223 238.685C235.264 239.002 235.178 239.323 234.983 239.577C234.788 239.831 234.5 239.998 234.183 240.04L205.173 243.573L205.028 243.597Z" fill="#3C4242"/>
<path d="M207.18 252.938C207.18 252.938 197.268 219.421 210.54 196.601C221.54 177.676 250.477 164.584 271.775 163.882C266.65 159.632 260.416 156.939 253.811 156.12C247.206 155.301 240.504 156.39 234.498 159.26C212.402 168.94 200.653 179.854 196.277 199.698C190.04 228.4 207.18 252.938 207.18 252.938Z" fill="#3C4242"/>
<path d="M207.18 254.1C206.987 254.097 206.797 254.05 206.625 253.962C206.453 253.874 206.304 253.747 206.189 253.592C206.019 253.326 188.807 228.279 195.117 199.408C199.323 180.048 210.25 168.48 234.038 158.099C240.283 155.161 247.232 154.057 254.078 154.913C260.925 155.77 267.388 158.553 272.718 162.939C272.887 163.105 273.004 163.317 273.056 163.549C273.107 163.781 273.091 164.023 273.008 164.245C272.929 164.471 272.782 164.666 272.587 164.805C272.392 164.943 272.159 165.019 271.92 165.02C251.42 165.77 222.628 178.233 211.58 197.23C198.719 219.325 208.244 252.261 208.34 252.6C208.421 252.874 208.402 253.167 208.287 253.428C208.172 253.69 207.968 253.902 207.712 254.027C207.541 254.085 207.36 254.11 207.18 254.1ZM249.897 157.058C244.76 157.095 239.687 158.208 235.005 160.325C212.015 170.392 201.499 181.5 197.461 199.965C193.424 218.429 199.613 235.902 204.158 245.122C202.031 233.627 200 212.331 209.501 195.996C220.379 177.289 247.794 164.681 268.536 162.866C263.04 159.121 256.546 157.114 249.897 157.106V157.058Z" fill="#3C4242"/>
<path d="M222.99 247.034C222.99 247.034 208.92 220.22 196.18 238.467C183.44 256.714 204.859 274.622 217.043 272.202" fill="white"/>
<path d="M214.65 273.654C207.663 273.654 199.347 268.814 194.681 261.554C192.226 258.041 190.952 253.838 191.043 249.552C191.134 245.266 192.587 241.121 195.189 237.717C198.549 232.877 202.442 230.457 206.527 230.82C216.197 231.425 223.74 245.775 224.078 246.38C224.223 246.67 224.248 247.004 224.148 247.312C224.049 247.62 223.833 247.876 223.546 248.026C223.264 248.171 222.935 248.199 222.632 248.104C222.329 248.009 222.076 247.798 221.927 247.518C221.927 247.372 214.674 233.748 206.382 233.24C203.143 233.022 200.024 235.006 197.171 239.096C194.868 242.118 193.58 245.793 193.493 249.593C193.406 253.393 194.525 257.123 196.688 260.247C201.378 267.507 210.395 272.202 216.801 270.943C217.118 270.886 217.445 270.955 217.712 271.136C217.978 271.317 218.163 271.595 218.228 271.911C218.284 272.226 218.214 272.55 218.033 272.812C217.852 273.075 217.574 273.256 217.261 273.315C216.404 273.514 215.529 273.628 214.65 273.654Z" fill="#3C4242"/>
<path d="M223.232 390.588C223.065 390.586 222.899 390.551 222.746 390.485C222.592 390.418 222.453 390.322 222.338 390.201C222.047 389.862 192.385 357.676 172.029 349.884C171.864 349.842 171.71 349.766 171.576 349.66C171.443 349.555 171.333 349.422 171.254 349.271C171.175 349.12 171.129 348.954 171.119 348.784C171.109 348.614 171.134 348.444 171.194 348.284C171.254 348.125 171.347 347.98 171.467 347.859C171.587 347.738 171.731 347.643 171.889 347.582C172.048 347.52 172.218 347.493 172.388 347.502C172.558 347.511 172.724 347.555 172.875 347.633C193.787 355.74 222.894 387.2 224.126 388.555C224.35 388.785 224.474 389.094 224.474 389.414C224.474 389.735 224.35 390.043 224.126 390.273C224.006 390.383 223.865 390.468 223.711 390.522C223.558 390.576 223.395 390.599 223.232 390.588Z" fill="#3C4242"/>
<path d="M582.98 213.928C582.73 213.927 582.486 213.851 582.279 213.71L555.686 195.318C555.428 195.129 555.253 194.846 555.198 194.53C555.144 194.214 555.215 193.889 555.396 193.624C555.486 193.494 555.6 193.383 555.733 193.298C555.866 193.213 556.014 193.155 556.169 193.128C556.325 193.101 556.484 193.105 556.638 193.141C556.791 193.176 556.936 193.242 557.064 193.334L583.657 211.726C583.789 211.813 583.902 211.926 583.989 212.058C584.077 212.19 584.137 212.339 584.166 212.494C584.195 212.65 584.193 212.81 584.16 212.965C584.126 213.119 584.062 213.266 583.971 213.396C583.861 213.558 583.714 213.692 583.541 213.784C583.369 213.877 583.176 213.926 582.98 213.928Z" fill="#D1D3D4"/>
<path d="M556.436 305.428C556.241 305.433 556.049 305.39 555.875 305.301C555.702 305.212 555.554 305.081 555.445 304.92C555.264 304.655 555.193 304.33 555.247 304.014C555.301 303.698 555.476 303.415 555.735 303.226L582.327 284.834C582.459 284.742 582.607 284.678 582.763 284.644C582.92 284.61 583.082 284.608 583.239 284.637C583.397 284.666 583.547 284.727 583.681 284.814C583.815 284.902 583.93 285.016 584.02 285.149C584.11 285.278 584.175 285.425 584.208 285.579C584.242 285.734 584.244 285.894 584.214 286.05C584.185 286.206 584.125 286.354 584.037 286.486C583.95 286.618 583.837 286.731 583.705 286.818L557.113 305.21C556.916 305.354 556.679 305.43 556.436 305.428Z" fill="#D1D3D4"/>
<path d="M580.2 250.47H556.484C556.164 250.47 555.856 250.343 555.63 250.116C555.403 249.889 555.276 249.581 555.276 249.26C555.276 248.939 555.403 248.631 555.63 248.404C555.856 248.177 556.164 248.05 556.484 248.05H580.2C580.521 248.05 580.828 248.177 581.055 248.404C581.281 248.631 581.409 248.939 581.409 249.26C581.409 249.581 581.281 249.889 581.055 250.116C580.828 250.343 580.521 250.47 580.2 250.47Z" fill="#D1D3D4"/>
<path d="M727.957 213.928C727.762 213.926 727.569 213.877 727.396 213.784C727.224 213.692 727.076 213.558 726.966 213.396C726.875 213.266 726.811 213.119 726.778 212.965C726.744 212.81 726.742 212.65 726.771 212.494C726.801 212.339 726.861 212.19 726.948 212.058C727.036 211.926 727.149 211.813 727.281 211.726L753.873 193.334C754.001 193.242 754.146 193.176 754.3 193.141C754.454 193.105 754.613 193.101 754.768 193.128C754.923 193.155 755.072 193.213 755.205 193.298C755.337 193.383 755.452 193.494 755.541 193.624C755.634 193.754 755.7 193.901 755.736 194.057C755.771 194.213 755.776 194.374 755.749 194.532C755.722 194.689 755.664 194.84 755.578 194.975C755.493 195.11 755.382 195.226 755.251 195.318L728.659 213.71C728.452 213.851 728.208 213.927 727.957 213.928Z" fill="#D1D3D4"/>
<path d="M754.502 305.428C754.259 305.427 754.023 305.351 753.825 305.21L727.232 286.818C727.1 286.731 726.987 286.618 726.9 286.486C726.813 286.354 726.752 286.206 726.723 286.05C726.694 285.894 726.696 285.734 726.729 285.579C726.763 285.425 726.827 285.278 726.918 285.149C727.008 285.016 727.123 284.902 727.257 284.814C727.391 284.727 727.541 284.666 727.698 284.637C727.856 284.608 728.017 284.61 728.174 284.644C728.331 284.678 728.479 284.742 728.61 284.834L755.203 303.226C755.333 303.318 755.445 303.434 755.53 303.569C755.616 303.704 755.673 303.855 755.7 304.012C755.727 304.17 755.723 304.331 755.687 304.487C755.652 304.643 755.586 304.79 755.493 304.92C755.383 305.081 755.235 305.212 755.062 305.301C754.889 305.39 754.696 305.433 754.502 305.428Z" fill="#D1D3D4"/>
<path d="M754.502 250.47H730.786C730.466 250.47 730.158 250.343 729.931 250.116C729.705 249.889 729.577 249.581 729.577 249.26C729.577 248.939 729.705 248.631 729.931 248.404C730.158 248.177 730.466 248.05 730.786 248.05H754.502C754.822 248.05 755.13 248.177 755.357 248.404C755.583 248.631 755.711 248.939 755.711 249.26C755.711 249.581 755.583 249.889 755.357 250.116C755.13 250.343 754.822 250.47 754.502 250.47Z" fill="#D1D3D4"/>
<rect x="540" y="473" width="227" height="52" rx="8" fill="#8A33FD"/>
<path d="M572.992 494.481L571.489 495.114C571.372 494.733 571.214 494.385 571.015 494.068C570.821 493.752 570.587 493.482 570.312 493.26C570.042 493.031 569.734 492.855 569.389 492.732C569.043 492.604 568.665 492.539 568.255 492.539C567.815 492.539 567.411 492.612 567.042 492.759C566.679 492.899 566.351 493.096 566.058 493.348C565.771 493.6 565.519 493.893 565.302 494.227C565.085 494.561 564.903 494.918 564.757 495.299C564.61 495.674 564.502 496.063 564.432 496.468C564.361 496.872 564.326 497.268 564.326 497.654C564.326 498.27 564.396 498.882 564.537 499.491C564.684 500.101 564.912 500.648 565.223 501.135C565.539 501.621 565.946 502.017 566.444 502.321C566.942 502.62 567.546 502.77 568.255 502.77C568.63 502.77 568.984 502.708 569.318 502.585C569.652 502.456 569.954 502.283 570.224 502.066C570.499 501.844 570.739 501.583 570.944 501.284C571.149 500.985 571.313 500.663 571.437 500.317L572.957 500.924C572.734 501.48 572.43 501.97 572.043 502.392C571.656 502.808 571.214 503.153 570.716 503.429C570.224 503.704 569.693 503.909 569.125 504.044C568.562 504.185 567.994 504.255 567.42 504.255C566.799 504.255 566.201 504.179 565.627 504.026C565.059 503.874 564.528 503.657 564.036 503.376C563.544 503.095 563.096 502.755 562.691 502.356C562.293 501.958 561.95 501.516 561.663 501.029C561.382 500.543 561.162 500.016 561.004 499.447C560.852 498.873 560.775 498.275 560.775 497.654C560.775 497.033 560.852 496.438 561.004 495.87C561.162 495.296 561.382 494.766 561.663 494.279C561.95 493.787 562.293 493.342 562.691 492.943C563.096 492.545 563.544 492.205 564.036 491.924C564.528 491.643 565.059 491.426 565.627 491.273C566.201 491.121 566.799 491.045 567.42 491.045C568.018 491.045 568.601 491.115 569.169 491.256C569.743 491.396 570.276 491.61 570.769 491.897C571.261 492.179 571.697 492.536 572.078 492.97C572.465 493.397 572.77 493.901 572.992 494.481ZM585.561 498.902C585.561 499.43 585.49 499.925 585.35 500.388C585.209 500.851 585.013 501.278 584.761 501.671C584.515 502.063 584.216 502.418 583.864 502.734C583.513 503.045 583.126 503.309 582.704 503.525C582.288 503.742 581.84 503.909 581.359 504.026C580.885 504.144 580.396 504.202 579.892 504.202C579.388 504.202 578.898 504.144 578.424 504.026C577.949 503.909 577.501 503.742 577.079 503.525C576.663 503.309 576.279 503.045 575.928 502.734C575.576 502.418 575.274 502.063 575.022 501.671C574.776 501.278 574.583 500.851 574.442 500.388C574.302 499.919 574.231 499.424 574.231 498.902C574.231 498.381 574.302 497.889 574.442 497.426C574.583 496.957 574.776 496.526 575.022 496.134C575.274 495.741 575.576 495.39 575.928 495.079C576.279 494.763 576.663 494.496 577.079 494.279C577.501 494.062 577.949 493.896 578.424 493.778C578.898 493.661 579.388 493.603 579.892 493.603C580.396 493.603 580.885 493.661 581.359 493.778C581.84 493.896 582.288 494.062 582.704 494.279C583.126 494.496 583.513 494.763 583.864 495.079C584.216 495.39 584.515 495.741 584.761 496.134C585.013 496.526 585.209 496.957 585.35 497.426C585.49 497.889 585.561 498.381 585.561 498.902ZM582.537 498.902C582.537 498.621 582.52 498.325 582.484 498.015C582.455 497.698 582.402 497.391 582.326 497.092C582.25 496.787 582.145 496.497 582.01 496.222C581.881 495.94 581.72 495.697 581.526 495.492C581.333 495.281 581.102 495.114 580.832 494.991C580.562 494.862 580.249 494.798 579.892 494.798C579.552 494.798 579.25 494.862 578.986 494.991C578.723 495.12 578.491 495.293 578.292 495.51C578.099 495.721 577.935 495.967 577.8 496.248C577.671 496.529 577.565 496.822 577.483 497.127C577.401 497.426 577.343 497.73 577.308 498.041C577.272 498.346 577.255 498.633 577.255 498.902C577.255 499.172 577.272 499.462 577.308 499.772C577.343 500.077 577.401 500.382 577.483 500.687C577.565 500.991 577.671 501.284 577.8 501.565C577.935 501.841 578.099 502.087 578.292 502.304C578.491 502.515 578.723 502.685 578.986 502.813C579.25 502.942 579.552 503.007 579.892 503.007C580.243 503.007 580.554 502.945 580.823 502.822C581.093 502.693 581.324 502.523 581.518 502.312C581.717 502.102 581.881 501.858 582.01 501.583C582.139 501.308 582.241 501.018 582.317 500.713C582.399 500.408 582.455 500.101 582.484 499.79C582.52 499.479 582.537 499.184 582.537 498.902ZM597.821 498.182C597.821 498.867 597.736 499.582 597.566 500.326C597.402 501.07 597.171 501.8 596.872 502.515C596.573 503.229 596.216 503.9 595.8 504.527C595.384 505.16 594.927 505.705 594.429 506.162L593.312 505.556C593.471 505.263 593.62 504.935 593.761 504.571C593.901 504.208 594.027 503.824 594.139 503.42C594.256 503.01 594.358 502.588 594.446 502.154C594.54 501.721 594.616 501.293 594.675 500.871C594.739 500.443 594.786 500.03 594.815 499.632C594.851 499.228 594.868 498.853 594.868 498.507C594.868 498.278 594.859 498.035 594.842 497.777C594.824 497.514 594.786 497.253 594.728 496.995C594.675 496.731 594.602 496.479 594.508 496.239C594.414 495.999 594.288 495.788 594.13 495.606C593.978 495.425 593.79 495.278 593.567 495.167C593.351 495.056 593.093 495 592.794 495C592.501 495 592.24 495.067 592.012 495.202C591.783 495.331 591.581 495.504 591.405 495.721C591.229 495.932 591.077 496.175 590.948 496.45C590.825 496.726 590.723 497.01 590.641 497.303C590.564 497.59 590.509 497.874 590.474 498.155C590.438 498.437 590.421 498.688 590.421 498.911V504H587.441V493.849H588.584L589.946 496.213C590.11 495.82 590.315 495.463 590.562 495.141C590.808 494.818 591.086 494.543 591.396 494.314C591.707 494.086 592.05 493.91 592.425 493.787C592.806 493.664 593.216 493.603 593.655 493.603C594.358 493.603 594.971 493.717 595.492 493.945C596.014 494.174 596.447 494.493 596.793 494.903C597.139 495.308 597.396 495.791 597.566 496.354C597.736 496.91 597.821 497.52 597.821 498.182ZM603.499 504H600.52V495.026H598.674V493.849H600.52V490.113H603.499V493.849H606.575V495.026H603.499V504ZM611.075 491.396C611.075 491.619 611.031 491.83 610.943 492.029C610.861 492.229 610.747 492.401 610.601 492.548C610.454 492.694 610.281 492.812 610.082 492.899C609.883 492.981 609.672 493.022 609.449 493.022C609.227 493.022 609.016 492.981 608.816 492.899C608.623 492.812 608.453 492.694 608.307 492.548C608.16 492.401 608.043 492.229 607.955 492.029C607.873 491.83 607.832 491.619 607.832 491.396C607.832 491.174 607.873 490.966 607.955 490.772C608.043 490.573 608.16 490.4 608.307 490.254C608.453 490.107 608.623 489.993 608.816 489.911C609.016 489.823 609.227 489.779 609.449 489.779C609.672 489.779 609.883 489.823 610.082 489.911C610.281 489.993 610.454 490.107 610.601 490.254C610.747 490.4 610.861 490.573 610.943 490.772C611.031 490.966 611.075 491.174 611.075 491.396ZM610.943 504H607.964V493.857H610.943V504ZM623.819 498.182C623.819 498.867 623.734 499.582 623.564 500.326C623.4 501.07 623.169 501.8 622.87 502.515C622.571 503.229 622.214 503.9 621.798 504.527C621.382 505.16 620.925 505.705 620.427 506.162L619.311 505.556C619.469 505.263 619.618 504.935 619.759 504.571C619.899 504.208 620.025 503.824 620.137 503.42C620.254 503.01 620.356 502.588 620.444 502.154C620.538 501.721 620.614 501.293 620.673 500.871C620.737 500.443 620.784 500.03 620.813 499.632C620.849 499.228 620.866 498.853 620.866 498.507C620.866 498.278 620.857 498.035 620.84 497.777C620.822 497.514 620.784 497.253 620.726 496.995C620.673 496.731 620.6 496.479 620.506 496.239C620.412 495.999 620.286 495.788 620.128 495.606C619.976 495.425 619.788 495.278 619.565 495.167C619.349 495.056 619.091 495 618.792 495C618.499 495 618.238 495.067 618.01 495.202C617.781 495.331 617.579 495.504 617.403 495.721C617.228 495.932 617.075 496.175 616.946 496.45C616.823 496.726 616.721 497.01 616.639 497.303C616.562 497.59 616.507 497.874 616.472 498.155C616.437 498.437 616.419 498.688 616.419 498.911V504H613.439V493.849H614.582L615.944 496.213C616.108 495.82 616.313 495.463 616.56 495.141C616.806 494.818 617.084 494.543 617.395 494.314C617.705 494.086 618.048 493.91 618.423 493.787C618.804 493.664 619.214 493.603 619.653 493.603C620.356 493.603 620.969 493.717 621.49 493.945C622.012 494.174 622.445 494.493 622.791 494.903C623.137 495.308 623.395 495.791 623.564 496.354C623.734 496.91 623.819 497.52 623.819 498.182ZM625.261 499.658C625.261 499.195 625.299 498.715 625.375 498.217C625.457 497.719 625.571 497.221 625.718 496.723C625.87 496.225 626.052 495.732 626.263 495.246C626.474 494.76 626.711 494.294 626.975 493.849H629.146C628.999 494.288 628.867 494.748 628.75 495.229C628.639 495.703 628.542 496.181 628.46 496.661C628.384 497.136 628.322 497.602 628.275 498.059C628.234 498.516 628.214 498.94 628.214 499.333C628.214 499.562 628.223 499.808 628.24 500.071C628.264 500.329 628.302 500.59 628.354 500.854C628.407 501.111 628.48 501.36 628.574 501.601C628.674 501.841 628.8 502.055 628.952 502.242C629.104 502.424 629.289 502.57 629.506 502.682C629.729 502.787 629.989 502.84 630.288 502.84C630.581 502.84 630.842 502.775 631.07 502.646C631.305 502.512 631.51 502.339 631.686 502.128C631.861 501.911 632.011 501.665 632.134 501.39C632.257 501.114 632.356 500.833 632.433 500.546C632.515 500.253 632.573 499.969 632.608 499.693C632.649 499.412 632.67 499.16 632.67 498.938V493.849H635.641V504H634.498L633.136 501.636C632.966 502.028 632.758 502.386 632.512 502.708C632.271 503.024 631.996 503.297 631.686 503.525C631.375 503.754 631.029 503.93 630.648 504.053C630.273 504.176 629.866 504.237 629.427 504.237C628.724 504.237 628.111 504.123 627.59 503.895C627.068 503.666 626.635 503.35 626.289 502.945C625.943 502.541 625.686 502.061 625.516 501.504C625.346 500.941 625.261 500.326 625.261 499.658ZM640.562 499.184C640.926 499.266 641.289 499.33 641.652 499.377C642.016 499.424 642.382 499.447 642.751 499.447C643.138 499.447 643.495 499.412 643.823 499.342C644.157 499.266 644.444 499.143 644.685 498.973C644.931 498.797 645.124 498.565 645.265 498.278C645.405 497.991 645.476 497.634 645.476 497.206C645.476 496.86 645.429 496.544 645.335 496.257C645.241 495.97 645.101 495.724 644.913 495.519C644.731 495.313 644.506 495.155 644.236 495.044C643.967 494.927 643.653 494.868 643.296 494.868C642.962 494.868 642.66 494.93 642.391 495.053C642.127 495.176 641.893 495.343 641.688 495.554C641.488 495.759 641.315 495.999 641.169 496.274C641.028 496.55 640.911 496.837 640.817 497.136C640.724 497.435 640.656 497.736 640.615 498.041C640.574 498.346 640.554 498.633 640.554 498.902C640.554 498.949 640.554 498.996 640.554 499.043C640.554 499.09 640.557 499.137 640.562 499.184ZM647.884 497.18C647.884 497.596 647.816 497.968 647.682 498.296C647.547 498.618 647.362 498.902 647.128 499.148C646.899 499.395 646.633 499.603 646.328 499.772C646.023 499.942 645.698 500.083 645.353 500.194C645.007 500.3 644.649 500.376 644.28 500.423C643.917 500.47 643.562 500.493 643.217 500.493C642.777 500.493 642.344 500.464 641.916 500.405C641.488 500.341 641.066 500.241 640.65 500.106C640.715 500.493 640.817 500.862 640.958 501.214C641.099 501.56 641.286 501.864 641.521 502.128C641.755 502.386 642.042 502.591 642.382 502.743C642.728 502.896 643.135 502.972 643.604 502.972C643.914 502.972 644.21 502.925 644.491 502.831C644.772 502.737 645.03 502.605 645.265 502.436C645.499 502.266 645.704 502.063 645.88 501.829C646.062 501.595 646.208 501.334 646.319 501.047L647.603 501.521C647.409 501.984 647.143 502.386 646.803 502.726C646.469 503.06 646.088 503.338 645.66 503.561C645.238 503.777 644.787 503.938 644.307 504.044C643.832 504.149 643.36 504.202 642.892 504.202C642.118 504.202 641.403 504.073 640.747 503.815C640.091 503.552 639.525 503.186 639.051 502.717C638.576 502.248 638.204 501.688 637.935 501.038C637.665 500.388 637.53 499.676 637.53 498.902C637.53 498.129 637.665 497.417 637.935 496.767C638.204 496.116 638.576 495.557 639.051 495.088C639.525 494.619 640.091 494.256 640.747 493.998C641.403 493.734 642.118 493.603 642.892 493.603C643.267 493.603 643.65 493.629 644.043 493.682C644.436 493.734 644.816 493.819 645.186 493.937C645.555 494.048 645.903 494.194 646.231 494.376C646.56 494.558 646.844 494.783 647.084 495.053C647.33 495.316 647.523 495.624 647.664 495.976C647.811 496.327 647.884 496.729 647.884 497.18ZM665.4 500.133C665.4 500.678 665.33 501.158 665.189 501.574C665.055 501.99 664.861 502.351 664.609 502.655C664.363 502.96 664.07 503.215 663.73 503.42C663.391 503.625 663.019 503.789 662.614 503.912C662.216 504.035 661.791 504.123 661.34 504.176C660.895 504.229 660.44 504.255 659.978 504.255C659.368 504.255 658.806 504.208 658.29 504.114C657.774 504.026 657.288 503.886 656.831 503.692C656.38 503.493 655.943 503.238 655.521 502.928C655.105 502.617 654.689 502.239 654.273 501.794L656.066 499.975C656.23 500.379 656.456 500.754 656.743 501.1C657.03 501.439 657.344 501.732 657.684 501.979C658.029 502.225 658.387 502.418 658.756 502.559C659.125 502.699 659.474 502.77 659.802 502.77C660.188 502.77 660.552 502.743 660.892 502.69C661.231 502.632 661.527 502.538 661.779 502.409C662.031 502.28 662.228 502.11 662.368 501.899C662.515 501.683 662.588 501.413 662.588 501.091C662.588 500.845 662.532 500.634 662.421 500.458C662.31 500.282 662.163 500.133 661.981 500.01C661.806 499.881 661.604 499.772 661.375 499.685C661.146 499.597 660.912 499.523 660.672 499.465C660.438 499.4 660.206 499.345 659.978 499.298C659.749 499.245 659.547 499.192 659.371 499.14C659.025 499.04 658.665 498.935 658.29 498.823C657.915 498.706 657.546 498.574 657.183 498.428C656.819 498.281 656.474 498.114 656.146 497.927C655.823 497.733 655.539 497.508 655.293 497.25C655.047 496.986 654.851 496.685 654.704 496.345C654.558 495.999 654.484 495.604 654.484 495.158C654.484 494.625 654.549 494.153 654.678 493.743C654.812 493.327 655 492.967 655.24 492.662C655.48 492.357 655.765 492.103 656.093 491.897C656.421 491.687 656.781 491.52 657.174 491.396C657.566 491.268 657.982 491.177 658.422 491.124C658.867 491.065 659.321 491.036 659.784 491.036C660.417 491.036 660.991 491.095 661.507 491.212C662.028 491.329 662.509 491.496 662.948 491.713C663.388 491.93 663.789 492.19 664.152 492.495C664.521 492.794 664.867 493.128 665.189 493.497L663.396 495.316C663.256 494.895 663.06 494.514 662.808 494.174C662.562 493.834 662.286 493.544 661.981 493.304C661.677 493.058 661.357 492.87 661.023 492.741C660.689 492.606 660.367 492.539 660.057 492.539C659.652 492.539 659.28 492.568 658.94 492.627C658.601 492.68 658.308 492.771 658.062 492.899C657.821 493.022 657.634 493.192 657.499 493.409C657.364 493.62 657.297 493.884 657.297 494.2C657.297 494.452 657.347 494.666 657.446 494.842C657.546 495.018 657.678 495.167 657.842 495.29C658.012 495.413 658.202 495.516 658.413 495.598C658.624 495.674 658.841 495.741 659.063 495.8C659.292 495.858 659.515 495.911 659.731 495.958C659.954 495.999 660.156 496.046 660.338 496.099C660.689 496.198 661.059 496.304 661.445 496.415C661.832 496.526 662.213 496.658 662.588 496.811C662.963 496.957 663.32 497.127 663.66 497.32C664 497.514 664.299 497.745 664.557 498.015C664.814 498.278 665.02 498.586 665.172 498.938C665.324 499.283 665.4 499.682 665.4 500.133ZM677.661 498.182C677.661 498.867 677.576 499.582 677.406 500.326C677.242 501.07 677.011 501.8 676.712 502.515C676.413 503.229 676.056 503.9 675.64 504.527C675.224 505.16 674.767 505.705 674.269 506.162L673.152 505.556C673.311 505.263 673.46 504.935 673.601 504.571C673.741 504.208 673.867 503.824 673.979 503.42C674.096 503.01 674.198 502.588 674.286 502.154C674.38 501.721 674.456 501.293 674.515 500.871C674.579 500.443 674.626 500.03 674.655 499.632C674.69 499.228 674.708 498.853 674.708 498.507C674.708 498.278 674.699 498.035 674.682 497.777C674.664 497.514 674.626 497.253 674.567 496.995C674.515 496.731 674.441 496.479 674.348 496.239C674.254 495.999 674.128 495.788 673.97 495.606C673.817 495.425 673.63 495.278 673.407 495.167C673.19 495.056 672.933 495 672.634 495C672.341 495 672.08 495.067 671.852 495.202C671.623 495.331 671.421 495.504 671.245 495.721C671.069 495.932 670.917 496.175 670.788 496.45C670.665 496.726 670.562 497.01 670.48 497.303C670.404 497.59 670.349 497.874 670.313 498.155C670.278 498.437 670.261 498.688 670.261 498.911V504H667.281V490.113H670.252V495.343C670.633 494.786 671.099 494.358 671.649 494.06C672.206 493.755 672.821 493.603 673.495 493.603C674.198 493.603 674.811 493.717 675.332 493.945C675.854 494.174 676.287 494.493 676.633 494.903C676.979 495.308 677.236 495.791 677.406 496.354C677.576 496.91 677.661 497.52 677.661 498.182ZM690.344 498.902C690.344 499.43 690.273 499.925 690.133 500.388C689.992 500.851 689.796 501.278 689.544 501.671C689.298 502.063 688.999 502.418 688.647 502.734C688.296 503.045 687.909 503.309 687.487 503.525C687.071 503.742 686.623 503.909 686.143 504.026C685.668 504.144 685.179 504.202 684.675 504.202C684.171 504.202 683.682 504.144 683.207 504.026C682.732 503.909 682.284 503.742 681.862 503.525C681.446 503.309 681.062 503.045 680.711 502.734C680.359 502.418 680.058 502.063 679.806 501.671C679.56 501.278 679.366 500.851 679.226 500.388C679.085 499.919 679.015 499.424 679.015 498.902C679.015 498.381 679.085 497.889 679.226 497.426C679.366 496.957 679.56 496.526 679.806 496.134C680.058 495.741 680.359 495.39 680.711 495.079C681.062 494.763 681.446 494.496 681.862 494.279C682.284 494.062 682.732 493.896 683.207 493.778C683.682 493.661 684.171 493.603 684.675 493.603C685.179 493.603 685.668 493.661 686.143 493.778C686.623 493.896 687.071 494.062 687.487 494.279C687.909 494.496 688.296 494.763 688.647 495.079C688.999 495.39 689.298 495.741 689.544 496.134C689.796 496.526 689.992 496.957 690.133 497.426C690.273 497.889 690.344 498.381 690.344 498.902ZM687.32 498.902C687.32 498.621 687.303 498.325 687.268 498.015C687.238 497.698 687.186 497.391 687.109 497.092C687.033 496.787 686.928 496.497 686.793 496.222C686.664 495.94 686.503 495.697 686.31 495.492C686.116 495.281 685.885 495.114 685.615 494.991C685.346 494.862 685.032 494.798 684.675 494.798C684.335 494.798 684.033 494.862 683.77 494.991C683.506 495.12 683.274 495.293 683.075 495.51C682.882 495.721 682.718 495.967 682.583 496.248C682.454 496.529 682.349 496.822 682.267 497.127C682.185 497.426 682.126 497.73 682.091 498.041C682.056 498.346 682.038 498.633 682.038 498.902C682.038 499.172 682.056 499.462 682.091 499.772C682.126 500.077 682.185 500.382 682.267 500.687C682.349 500.991 682.454 501.284 682.583 501.565C682.718 501.841 682.882 502.087 683.075 502.304C683.274 502.515 683.506 502.685 683.77 502.813C684.033 502.942 684.335 503.007 684.675 503.007C685.026 503.007 685.337 502.945 685.606 502.822C685.876 502.693 686.107 502.523 686.301 502.312C686.5 502.102 686.664 501.858 686.793 501.583C686.922 501.308 687.024 501.018 687.101 500.713C687.183 500.408 687.238 500.101 687.268 499.79C687.303 499.479 687.32 499.184 687.32 498.902ZM703.018 498.902C703.018 499.641 702.906 500.332 702.684 500.977C702.461 501.621 702.139 502.184 701.717 502.664C701.295 503.139 700.779 503.514 700.17 503.789C699.561 504.064 698.869 504.202 698.096 504.202C697.504 504.202 696.959 504.088 696.461 503.859C695.969 503.625 695.547 503.268 695.195 502.787V508.685H692.225V493.849H693.367L694.686 496.055C694.814 495.686 694.99 495.352 695.213 495.053C695.441 494.748 695.702 494.49 695.995 494.279C696.294 494.062 696.619 493.896 696.971 493.778C697.328 493.661 697.703 493.603 698.096 493.603C698.869 493.603 699.561 493.74 700.17 494.016C700.779 494.291 701.295 494.669 701.717 495.149C702.139 495.624 702.461 496.184 702.684 496.828C702.906 497.473 703.018 498.164 703.018 498.902ZM700.003 498.902C700.003 498.645 699.988 498.372 699.959 498.085C699.936 497.792 699.892 497.502 699.827 497.215C699.763 496.928 699.672 496.652 699.555 496.389C699.443 496.125 699.3 495.894 699.124 495.694C698.948 495.489 698.734 495.328 698.482 495.211C698.236 495.088 697.949 495.026 697.621 495.026C697.281 495.026 696.985 495.085 696.733 495.202C696.487 495.319 696.273 495.48 696.092 495.686C695.916 495.885 695.77 496.116 695.652 496.38C695.541 496.638 695.453 496.91 695.389 497.197C695.324 497.484 695.277 497.774 695.248 498.067C695.225 498.36 695.213 498.639 695.213 498.902C695.213 499.137 695.23 499.397 695.266 499.685C695.301 499.966 695.356 500.25 695.433 500.537C695.509 500.824 695.608 501.103 695.731 501.372C695.854 501.642 696.004 501.882 696.18 502.093C696.361 502.304 696.569 502.474 696.804 502.603C697.044 502.726 697.316 502.787 697.621 502.787C697.955 502.787 698.245 502.729 698.491 502.611C698.737 502.488 698.948 502.327 699.124 502.128C699.3 501.923 699.443 501.688 699.555 501.425C699.672 501.161 699.763 500.886 699.827 500.599C699.892 500.312 699.936 500.021 699.959 499.729C699.988 499.436 700.003 499.16 700.003 498.902ZM715.727 498.902C715.727 499.641 715.615 500.332 715.393 500.977C715.17 501.621 714.848 502.184 714.426 502.664C714.004 503.139 713.488 503.514 712.879 503.789C712.27 504.064 711.578 504.202 710.805 504.202C710.213 504.202 709.668 504.088 709.17 503.859C708.678 503.625 708.256 503.268 707.904 502.787V508.685H704.934V493.849H706.076L707.395 496.055C707.523 495.686 707.699 495.352 707.922 495.053C708.15 494.748 708.411 494.49 708.704 494.279C709.003 494.062 709.328 493.896 709.68 493.778C710.037 493.661 710.412 493.603 710.805 493.603C711.578 493.603 712.27 493.74 712.879 494.016C713.488 494.291 714.004 494.669 714.426 495.149C714.848 495.624 715.17 496.184 715.393 496.828C715.615 497.473 715.727 498.164 715.727 498.902ZM712.712 498.902C712.712 498.645 712.697 498.372 712.668 498.085C712.645 497.792 712.601 497.502 712.536 497.215C712.472 496.928 712.381 496.652 712.264 496.389C712.152 496.125 712.009 495.894 711.833 495.694C711.657 495.489 711.443 495.328 711.191 495.211C710.945 495.088 710.658 495.026 710.33 495.026C709.99 495.026 709.694 495.085 709.442 495.202C709.196 495.319 708.982 495.48 708.801 495.686C708.625 495.885 708.479 496.116 708.361 496.38C708.25 496.638 708.162 496.91 708.098 497.197C708.033 497.484 707.986 497.774 707.957 498.067C707.934 498.36 707.922 498.639 707.922 498.902C707.922 499.137 707.939 499.397 707.975 499.685C708.01 499.966 708.065 500.25 708.142 500.537C708.218 500.824 708.317 501.103 708.44 501.372C708.563 501.642 708.713 501.882 708.889 502.093C709.07 502.304 709.278 502.474 709.513 502.603C709.753 502.726 710.025 502.787 710.33 502.787C710.664 502.787 710.954 502.729 711.2 502.611C711.446 502.488 711.657 502.327 711.833 502.128C712.009 501.923 712.152 501.688 712.264 501.425C712.381 501.161 712.472 500.886 712.536 500.599C712.601 500.312 712.645 500.021 712.668 499.729C712.697 499.436 712.712 499.16 712.712 498.902ZM720.763 491.396C720.763 491.619 720.719 491.83 720.631 492.029C720.549 492.229 720.435 492.401 720.288 492.548C720.142 492.694 719.969 492.812 719.77 492.899C719.57 492.981 719.359 493.022 719.137 493.022C718.914 493.022 718.703 492.981 718.504 492.899C718.311 492.812 718.141 492.694 717.994 492.548C717.848 492.401 717.73 492.229 717.643 492.029C717.561 491.83 717.52 491.619 717.52 491.396C717.52 491.174 717.561 490.966 717.643 490.772C717.73 490.573 717.848 490.4 717.994 490.254C718.141 490.107 718.311 489.993 718.504 489.911C718.703 489.823 718.914 489.779 719.137 489.779C719.359 489.779 719.57 489.823 719.77 489.911C719.969 489.993 720.142 490.107 720.288 490.254C720.435 490.4 720.549 490.573 720.631 490.772C720.719 490.966 720.763 491.174 720.763 491.396ZM720.631 504H717.651V493.857H720.631V504ZM733.507 498.182C733.507 498.867 733.422 499.582 733.252 500.326C733.088 501.07 732.856 501.8 732.558 502.515C732.259 503.229 731.901 503.9 731.485 504.527C731.069 505.16 730.612 505.705 730.114 506.162L728.998 505.556C729.156 505.263 729.306 504.935 729.446 504.571C729.587 504.208 729.713 503.824 729.824 503.42C729.941 503.01 730.044 502.588 730.132 502.154C730.226 501.721 730.302 501.293 730.36 500.871C730.425 500.443 730.472 500.03 730.501 499.632C730.536 499.228 730.554 498.853 730.554 498.507C730.554 498.278 730.545 498.035 730.527 497.777C730.51 497.514 730.472 497.253 730.413 496.995C730.36 496.731 730.287 496.479 730.193 496.239C730.1 495.999 729.974 495.788 729.815 495.606C729.663 495.425 729.476 495.278 729.253 495.167C729.036 495.056 728.778 495 728.479 495C728.187 495 727.926 495.067 727.697 495.202C727.469 495.331 727.267 495.504 727.091 495.721C726.915 495.932 726.763 496.175 726.634 496.45C726.511 496.726 726.408 497.01 726.326 497.303C726.25 497.59 726.194 497.874 726.159 498.155C726.124 498.437 726.106 498.688 726.106 498.911V504H723.127V493.849H724.27L725.632 496.213C725.796 495.82 726.001 495.463 726.247 495.141C726.493 494.818 726.771 494.543 727.082 494.314C727.393 494.086 727.735 493.91 728.11 493.787C728.491 493.664 728.901 493.603 729.341 493.603C730.044 493.603 730.656 493.717 731.178 493.945C731.699 494.174 732.133 494.493 732.479 494.903C732.824 495.308 733.082 495.791 733.252 496.354C733.422 496.91 733.507 497.52 733.507 498.182ZM745.688 502.778C745.688 503.587 745.568 504.349 745.328 505.063C745.088 505.778 744.739 506.402 744.282 506.936C743.825 507.475 743.263 507.899 742.595 508.21C741.933 508.526 741.177 508.685 740.327 508.685C739.858 508.685 739.384 508.632 738.903 508.526C738.429 508.421 737.978 508.257 737.55 508.034C737.128 507.817 736.747 507.539 736.407 507.199C736.073 506.865 735.81 506.47 735.616 506.013L736.899 505.529C737.011 505.816 737.154 506.08 737.33 506.32C737.512 506.561 737.72 506.766 737.954 506.936C738.188 507.111 738.446 507.246 738.728 507.34C739.009 507.439 739.305 507.489 739.615 507.489C740.201 507.489 740.69 507.369 741.083 507.129C741.481 506.889 741.801 506.575 742.041 506.188C742.281 505.802 742.454 505.362 742.56 504.87C742.665 504.384 742.718 503.889 742.718 503.385V502.787C742.366 503.268 741.941 503.625 741.443 503.859C740.951 504.088 740.409 504.202 739.817 504.202C739.044 504.202 738.353 504.064 737.743 503.789C737.134 503.514 736.618 503.139 736.196 502.664C735.774 502.184 735.452 501.621 735.229 500.977C735.007 500.332 734.896 499.641 734.896 498.902C734.896 498.164 735.007 497.473 735.229 496.828C735.452 496.184 735.774 495.624 736.196 495.149C736.618 494.669 737.134 494.291 737.743 494.016C738.353 493.74 739.044 493.603 739.817 493.603C740.21 493.603 740.582 493.661 740.934 493.778C741.291 493.896 741.616 494.062 741.909 494.279C742.208 494.49 742.469 494.748 742.691 495.053C742.92 495.352 743.099 495.686 743.228 496.055L744.546 493.849H745.688V502.778ZM742.7 498.902C742.7 498.639 742.686 498.36 742.656 498.067C742.633 497.774 742.589 497.484 742.524 497.197C742.46 496.91 742.369 496.638 742.252 496.38C742.141 496.116 741.994 495.885 741.812 495.686C741.637 495.48 741.423 495.319 741.171 495.202C740.919 495.085 740.626 495.026 740.292 495.026C739.958 495.026 739.668 495.088 739.422 495.211C739.176 495.328 738.965 495.489 738.789 495.694C738.613 495.894 738.467 496.125 738.35 496.389C738.238 496.652 738.15 496.928 738.086 497.215C738.021 497.502 737.975 497.792 737.945 498.085C737.922 498.372 737.91 498.645 737.91 498.902C737.91 499.16 737.922 499.436 737.945 499.729C737.975 500.021 738.021 500.312 738.086 500.599C738.15 500.886 738.238 501.161 738.35 501.425C738.467 501.688 738.613 501.923 738.789 502.128C738.965 502.327 739.176 502.488 739.422 502.611C739.668 502.729 739.958 502.787 740.292 502.787C740.597 502.787 740.866 502.726 741.101 502.603C741.341 502.474 741.549 502.304 741.725 502.093C741.906 501.882 742.059 501.642 742.182 501.372C742.305 501.103 742.404 500.824 742.48 500.537C742.557 500.25 742.612 499.966 742.647 499.685C742.683 499.397 742.7 499.137 742.7 498.902Z" fill="white"/>
<path d="M593.279 383.951V394H591.39V383.98L585.955 372.994H587.991L592.312 381.725L596.634 372.994H598.67L593.279 383.951ZM609.891 389.884C609.891 390.489 609.773 391.061 609.539 391.598C609.314 392.135 609.002 392.604 608.602 393.004C608.201 393.404 607.732 393.722 607.195 393.956C606.658 394.181 606.087 394.293 605.481 394.293H604.28C603.675 394.293 603.104 394.181 602.566 393.956C602.029 393.722 601.561 393.404 601.16 393.004C600.76 392.604 600.442 392.135 600.208 391.598C599.983 391.061 599.871 390.489 599.871 389.884V383.116C599.871 382.511 599.983 381.939 600.208 381.402C600.442 380.865 600.76 380.396 601.16 379.996C601.561 379.596 602.029 379.283 602.566 379.059C603.104 378.824 603.675 378.707 604.28 378.707H605.481C606.087 378.707 606.658 378.824 607.195 379.059C607.732 379.283 608.201 379.596 608.602 379.996C609.002 380.396 609.314 380.865 609.539 381.402C609.773 381.939 609.891 382.511 609.891 383.116V389.884ZM608.089 383.014C608.089 382.652 608.021 382.315 607.884 382.003C607.747 381.681 607.562 381.402 607.327 381.168C607.093 380.934 606.814 380.748 606.492 380.611C606.18 380.475 605.843 380.406 605.481 380.406H604.28C603.919 380.406 603.577 380.475 603.255 380.611C602.942 380.748 602.669 380.934 602.435 381.168C602.2 381.402 602.015 381.681 601.878 382.003C601.741 382.315 601.673 382.652 601.673 383.014V389.986C601.673 390.348 601.741 390.689 601.878 391.012C602.015 391.324 602.2 391.598 602.435 391.832C602.669 392.066 602.942 392.252 603.255 392.389C603.577 392.525 603.919 392.594 604.28 392.594H605.481C605.843 392.594 606.18 392.525 606.492 392.389C606.814 392.252 607.093 392.066 607.327 391.832C607.562 391.598 607.747 391.324 607.884 391.012C608.021 390.689 608.089 390.348 608.089 389.986V383.014ZM622.913 394L621.917 392.477C621.507 393.033 620.994 393.478 620.379 393.81C619.764 394.132 619.09 394.293 618.357 394.293H617.903C617.298 394.293 616.727 394.181 616.189 393.956C615.652 393.722 615.184 393.404 614.783 393.004C614.383 392.604 614.065 392.135 613.831 391.598C613.606 391.061 613.494 390.489 613.494 389.884V379H615.296V389.986C615.296 390.348 615.364 390.689 615.501 391.012C615.638 391.324 615.823 391.598 616.058 391.832C616.292 392.066 616.565 392.252 616.878 392.389C617.2 392.525 617.542 392.594 617.903 392.594H619.104C619.466 392.594 619.803 392.525 620.115 392.389C620.438 392.252 620.716 392.066 620.95 391.832C621.185 391.598 621.37 391.324 621.507 391.012C621.644 390.689 621.712 390.348 621.712 389.986V379H623.514V394H622.913ZM631.526 380.714C631.165 380.714 630.823 380.782 630.501 380.919C630.188 381.056 629.915 381.241 629.681 381.476C629.446 381.71 629.261 381.988 629.124 382.311C628.987 382.623 628.919 382.96 628.919 383.321V394H627.117V379H627.718L628.699 380.523C629.109 379.967 629.622 379.527 630.237 379.205C630.862 378.873 631.541 378.707 632.273 378.707H633.328V380.714H631.526ZM654.759 389.137C654.759 389.85 654.622 390.519 654.349 391.144C654.085 391.769 653.719 392.315 653.25 392.784C652.781 393.253 652.234 393.624 651.609 393.897C650.984 394.161 650.315 394.293 649.603 394.293H648.108C647.396 394.293 646.722 394.161 646.087 393.897C645.462 393.624 644.915 393.253 644.446 392.784C643.978 392.315 643.606 391.769 643.333 391.144C643.069 390.519 642.938 389.85 642.938 389.137V377.857C642.938 377.145 643.069 376.476 643.333 375.851C643.606 375.226 643.978 374.679 644.446 374.21C644.915 373.741 645.462 373.375 646.087 373.111C646.722 372.838 647.396 372.701 648.108 372.701H649.603C650.315 372.701 650.984 372.838 651.609 373.111C652.234 373.375 652.781 373.741 653.25 374.21C653.719 374.679 654.085 375.226 654.349 375.851C654.622 376.476 654.759 377.145 654.759 377.857V389.137ZM652.869 377.857C652.869 377.389 652.781 376.954 652.605 376.554C652.43 376.144 652.19 375.787 651.888 375.484C651.585 375.182 651.229 374.942 650.818 374.767C650.418 374.591 649.983 374.503 649.515 374.503H648.196C647.728 374.503 647.288 374.591 646.878 374.767C646.478 374.942 646.121 375.182 645.809 375.484C645.506 375.787 645.267 376.144 645.091 376.554C644.915 376.954 644.827 377.389 644.827 377.857V389.137C644.827 389.605 644.915 390.045 645.091 390.455C645.267 390.855 645.506 391.212 645.809 391.524C646.121 391.827 646.478 392.066 646.878 392.242C647.288 392.418 647.728 392.506 648.196 392.506H649.515C649.983 392.506 650.418 392.418 650.818 392.242C651.229 392.066 651.585 391.827 651.888 391.524C652.19 391.212 652.43 390.855 652.605 390.455C652.781 390.045 652.869 389.605 652.869 389.137V377.857ZM663.079 380.714C662.718 380.714 662.376 380.782 662.054 380.919C661.741 381.056 661.468 381.241 661.233 381.476C660.999 381.71 660.813 381.988 660.677 382.311C660.54 382.623 660.472 382.96 660.472 383.321V394H658.67V379H659.271L660.252 380.523C660.662 379.967 661.175 379.527 661.79 379.205C662.415 378.873 663.094 378.707 663.826 378.707H664.881V380.714H663.079ZM676.702 394L675.706 392.477C675.296 393.033 674.783 393.478 674.168 393.81C673.553 394.132 672.879 394.293 672.146 394.293H671.692C671.087 394.293 670.516 394.181 669.979 393.956C669.441 393.722 668.973 393.404 668.572 393.004C668.172 392.604 667.854 392.135 667.62 391.598C667.396 391.061 667.283 390.489 667.283 389.884V383.116C667.283 382.511 667.396 381.939 667.62 381.402C667.854 380.865 668.172 380.396 668.572 379.996C668.973 379.596 669.441 379.283 669.979 379.059C670.516 378.824 671.087 378.707 671.692 378.707H672.146C672.82 378.707 673.445 378.844 674.021 379.117C674.598 379.391 675.091 379.771 675.501 380.26V372.994H677.303V394H676.702ZM675.501 383.014C675.501 382.652 675.433 382.315 675.296 382.003C675.159 381.681 674.974 381.402 674.739 381.168C674.505 380.934 674.227 380.748 673.904 380.611C673.592 380.475 673.255 380.406 672.894 380.406H671.692C671.331 380.406 670.989 380.475 670.667 380.611C670.354 380.748 670.081 380.934 669.847 381.168C669.612 381.402 669.427 381.681 669.29 382.003C669.153 382.315 669.085 382.652 669.085 383.014V389.986C669.085 390.348 669.153 390.689 669.29 391.012C669.427 391.324 669.612 391.598 669.847 391.832C670.081 392.066 670.354 392.252 670.667 392.389C670.989 392.525 671.331 392.594 671.692 392.594H672.894C673.255 392.594 673.592 392.525 673.904 392.389C674.227 392.252 674.505 392.066 674.739 391.832C674.974 391.598 675.159 391.324 675.296 391.012C675.433 390.689 675.501 390.348 675.501 389.986V383.014ZM690.926 389.884C690.926 390.489 690.809 391.061 690.574 391.598C690.35 392.135 690.037 392.604 689.637 393.004C689.236 393.404 688.768 393.722 688.23 393.956C687.693 394.181 687.122 394.293 686.517 394.293H685.315C684.71 394.293 684.139 394.181 683.602 393.956C683.064 393.722 682.596 393.404 682.195 393.004C681.795 392.604 681.478 392.135 681.243 391.598C681.019 391.061 680.906 390.489 680.906 389.884V383.116C680.906 382.511 681.019 381.939 681.243 381.402C681.478 380.865 681.795 380.396 682.195 379.996C682.596 379.596 683.064 379.283 683.602 379.059C684.139 378.824 684.71 378.707 685.315 378.707H686.517C687.122 378.707 687.693 378.824 688.23 379.059C688.768 379.283 689.236 379.596 689.637 379.996C690.037 380.396 690.35 380.865 690.574 381.402C690.809 381.939 690.926 382.511 690.926 383.116V386.646H682.708V389.986C682.708 390.348 682.776 390.689 682.913 391.012C683.05 391.324 683.235 391.598 683.47 391.832C683.704 392.066 683.978 392.252 684.29 392.389C684.612 392.525 684.954 392.594 685.315 392.594H686.517C686.878 392.594 687.215 392.525 687.527 392.389C687.85 392.252 688.128 392.066 688.362 391.832C688.597 391.598 688.782 391.324 688.919 391.012C689.056 390.689 689.124 390.348 689.124 389.986V388.99L690.926 389.283V389.884ZM689.124 383.014C689.124 382.652 689.056 382.315 688.919 382.003C688.782 381.681 688.597 381.402 688.362 381.168C688.128 380.934 687.85 380.748 687.527 380.611C687.215 380.475 686.878 380.406 686.517 380.406H685.315C684.954 380.406 684.612 380.475 684.29 380.611C683.978 380.748 683.704 380.934 683.47 381.168C683.235 381.402 683.05 381.681 682.913 382.003C682.776 382.315 682.708 382.652 682.708 383.014V385.24H689.124V383.014ZM698.938 380.714C698.577 380.714 698.235 380.782 697.913 380.919C697.601 381.056 697.327 381.241 697.093 381.476C696.858 381.71 696.673 381.988 696.536 382.311C696.399 382.623 696.331 382.96 696.331 383.321V394H694.529V379H695.13L696.111 380.523C696.521 379.967 697.034 379.527 697.649 379.205C698.274 378.873 698.953 378.707 699.686 378.707H700.74V380.714H698.938ZM710.511 375.396V372.994H712.605V375.396H710.511ZM710.657 394V379H712.459V394H710.657ZM726.99 390.191C726.99 390.797 726.868 391.354 726.624 391.861C726.38 392.359 726.048 392.789 725.628 393.15C725.208 393.512 724.72 393.795 724.163 394C723.616 394.195 723.04 394.293 722.435 394.293H721.233C720.628 394.293 720.047 394.181 719.49 393.956C718.943 393.722 718.46 393.404 718.04 393.004C717.63 392.604 717.298 392.135 717.044 391.598C716.8 391.061 716.678 390.489 716.678 389.884V389.283L718.479 388.99V389.986C718.479 390.348 718.553 390.689 718.699 391.012C718.855 391.324 719.061 391.598 719.314 391.832C719.568 392.066 719.861 392.252 720.193 392.389C720.525 392.525 720.872 392.594 721.233 392.594H722.435C722.796 392.594 723.143 392.54 723.475 392.433C723.807 392.325 724.1 392.174 724.354 391.979C724.617 391.773 724.822 391.529 724.969 391.246C725.125 390.963 725.203 390.641 725.203 390.279C725.203 389.742 725.086 389.303 724.852 388.961C724.617 388.619 724.305 388.336 723.914 388.111C723.533 387.877 723.094 387.687 722.596 387.54C722.107 387.384 721.604 387.232 721.087 387.086C720.569 386.93 720.062 386.754 719.563 386.559C719.075 386.363 718.636 386.109 718.245 385.797C717.864 385.475 717.557 385.074 717.322 384.596C717.088 384.117 716.971 383.521 716.971 382.809C716.971 382.203 717.088 381.651 717.322 381.153C717.557 380.646 717.874 380.211 718.274 379.85C718.675 379.488 719.139 379.21 719.666 379.015C720.203 378.81 720.774 378.707 721.38 378.707H722.435C723.04 378.707 723.611 378.824 724.148 379.059C724.686 379.283 725.154 379.596 725.555 379.996C725.955 380.396 726.268 380.865 726.492 381.402C726.727 381.939 726.844 382.511 726.844 383.116V383.175L725.042 383.468V383.014C725.042 382.652 724.974 382.315 724.837 382.003C724.7 381.681 724.515 381.402 724.28 381.168C724.046 380.934 723.768 380.748 723.445 380.611C723.133 380.475 722.796 380.406 722.435 380.406H721.38C721.019 380.406 720.677 380.46 720.354 380.567C720.042 380.675 719.769 380.831 719.534 381.036C719.3 381.231 719.114 381.471 718.978 381.754C718.841 382.037 718.772 382.359 718.772 382.721C718.772 383.238 718.89 383.663 719.124 383.995C719.358 384.317 719.666 384.591 720.047 384.815C720.438 385.04 720.877 385.23 721.365 385.387C721.863 385.533 722.366 385.689 722.874 385.855C723.392 386.012 723.895 386.192 724.383 386.397C724.881 386.603 725.32 386.866 725.701 387.188C726.092 387.511 726.404 387.916 726.639 388.404C726.873 388.883 726.99 389.479 726.99 390.191ZM613.26 422.137C613.26 422.85 613.123 423.519 612.85 424.144C612.586 424.769 612.22 425.315 611.751 425.784C611.282 426.253 610.735 426.624 610.11 426.897C609.485 427.161 608.816 427.293 608.104 427.293H606.609C605.896 427.293 605.223 427.161 604.588 426.897C603.963 426.624 603.416 426.253 602.947 425.784C602.479 425.315 602.107 424.769 601.834 424.144C601.57 423.519 601.438 422.85 601.438 422.137V410.857C601.438 410.145 601.57 409.476 601.834 408.851C602.107 408.226 602.479 407.679 602.947 407.21C603.416 406.741 603.963 406.375 604.588 406.111C605.223 405.838 605.896 405.701 606.609 405.701H608.104C608.816 405.701 609.485 405.838 610.11 406.111C610.735 406.375 611.282 406.741 611.751 407.21C612.22 407.679 612.586 408.226 612.85 408.851C613.123 409.476 613.26 410.145 613.26 410.857V411.707L611.37 412V410.857C611.37 410.389 611.282 409.954 611.106 409.554C610.931 409.144 610.691 408.787 610.389 408.484C610.086 408.182 609.729 407.942 609.319 407.767C608.919 407.591 608.484 407.503 608.016 407.503H606.697C606.229 407.503 605.789 407.591 605.379 407.767C604.979 407.942 604.622 408.182 604.31 408.484C604.007 408.787 603.768 409.144 603.592 409.554C603.416 409.954 603.328 410.389 603.328 410.857V422.137C603.328 422.605 603.416 423.045 603.592 423.455C603.768 423.855 604.007 424.212 604.31 424.524C604.622 424.827 604.979 425.066 605.379 425.242C605.789 425.418 606.229 425.506 606.697 425.506H608.016C608.484 425.506 608.919 425.418 609.319 425.242C609.729 425.066 610.086 424.827 610.389 424.524C610.691 424.212 610.931 423.855 611.106 423.455C611.282 423.045 611.37 422.605 611.37 422.137V420.994L613.26 421.302V422.137ZM626.897 422.884C626.897 423.489 626.78 424.061 626.546 424.598C626.321 425.135 626.009 425.604 625.608 426.004C625.208 426.404 624.739 426.722 624.202 426.956C623.665 427.181 623.094 427.293 622.488 427.293H621.287C620.682 427.293 620.11 427.181 619.573 426.956C619.036 426.722 618.567 426.404 618.167 426.004C617.767 425.604 617.449 425.135 617.215 424.598C616.99 424.061 616.878 423.489 616.878 422.884V416.116C616.878 415.511 616.99 414.939 617.215 414.402C617.449 413.865 617.767 413.396 618.167 412.996C618.567 412.596 619.036 412.283 619.573 412.059C620.11 411.824 620.682 411.707 621.287 411.707H622.488C623.094 411.707 623.665 411.824 624.202 412.059C624.739 412.283 625.208 412.596 625.608 412.996C626.009 413.396 626.321 413.865 626.546 414.402C626.78 414.939 626.897 415.511 626.897 416.116V422.884ZM625.096 416.014C625.096 415.652 625.027 415.315 624.891 415.003C624.754 414.681 624.568 414.402 624.334 414.168C624.1 413.934 623.821 413.748 623.499 413.611C623.187 413.475 622.85 413.406 622.488 413.406H621.287C620.926 413.406 620.584 413.475 620.262 413.611C619.949 413.748 619.676 413.934 619.441 414.168C619.207 414.402 619.021 414.681 618.885 415.003C618.748 415.315 618.68 415.652 618.68 416.014V422.986C618.68 423.348 618.748 423.689 618.885 424.012C619.021 424.324 619.207 424.598 619.441 424.832C619.676 425.066 619.949 425.252 620.262 425.389C620.584 425.525 620.926 425.594 621.287 425.594H622.488C622.85 425.594 623.187 425.525 623.499 425.389C623.821 425.252 624.1 425.066 624.334 424.832C624.568 424.598 624.754 424.324 624.891 424.012C625.027 423.689 625.096 423.348 625.096 422.986V416.014ZM638.719 427V416.014C638.719 415.652 638.65 415.315 638.514 415.003C638.377 414.681 638.191 414.402 637.957 414.168C637.723 413.934 637.444 413.748 637.122 413.611C636.81 413.475 636.473 413.406 636.111 413.406H634.91C634.549 413.406 634.207 413.475 633.885 413.611C633.572 413.748 633.299 413.934 633.064 414.168C632.83 414.402 632.645 414.681 632.508 415.003C632.371 415.315 632.303 415.652 632.303 416.014V427H630.501V412H631.102L632.083 413.523C632.493 412.967 633.006 412.527 633.621 412.205C634.246 411.873 634.925 411.707 635.657 411.707H636.111C636.717 411.707 637.288 411.824 637.825 412.059C638.362 412.283 638.831 412.596 639.231 412.996C639.632 413.396 639.944 413.865 640.169 414.402C640.403 414.939 640.521 415.511 640.521 416.116V427H638.719ZM649.28 407.708C648.978 407.708 648.694 407.767 648.431 407.884C648.177 407.991 647.952 408.143 647.757 408.338C647.562 408.533 647.405 408.763 647.288 409.026C647.181 409.29 647.127 409.573 647.127 409.876V412H650.628V413.714H647.127V427H645.325V413.714H642.615V412H645.325V409.964C645.325 409.417 645.428 408.904 645.633 408.426C645.838 407.938 646.121 407.513 646.482 407.151C646.844 406.79 647.264 406.507 647.742 406.302C648.221 406.097 648.733 405.994 649.28 405.994H650.936V407.708H649.28ZM653.191 408.396V405.994H655.286V408.396H653.191ZM653.338 427V412H655.14V427H653.338ZM663.768 413.714C663.406 413.714 663.064 413.782 662.742 413.919C662.43 414.056 662.156 414.241 661.922 414.476C661.688 414.71 661.502 414.988 661.365 415.311C661.229 415.623 661.16 415.96 661.16 416.321V427H659.358V412H659.959L660.94 413.523C661.351 412.967 661.863 412.527 662.479 412.205C663.104 411.873 663.782 411.707 664.515 411.707H665.569V413.714H663.768ZM683.807 427V416.014C683.807 415.652 683.738 415.315 683.602 415.003C683.465 414.681 683.279 414.402 683.045 414.168C682.811 413.934 682.532 413.748 682.21 413.611C681.897 413.475 681.561 413.406 681.199 413.406H680.306C679.944 413.406 679.603 413.475 679.28 413.611C678.968 413.748 678.689 413.934 678.445 414.168C678.211 414.402 678.025 414.681 677.889 415.003C677.752 415.315 677.684 415.652 677.684 416.014V427H675.896V416.014C675.896 415.652 675.828 415.315 675.691 415.003C675.555 414.681 675.364 414.402 675.12 414.168C674.886 413.934 674.607 413.748 674.285 413.611C673.973 413.475 673.636 413.406 673.274 413.406H672.381C672.02 413.406 671.678 413.475 671.355 413.611C671.043 413.748 670.77 413.934 670.535 414.168C670.301 414.402 670.115 414.681 669.979 415.003C669.842 415.315 669.773 415.652 669.773 416.014V427H667.972V412H668.572L669.554 413.523C669.964 412.967 670.477 412.527 671.092 412.205C671.717 411.873 672.396 411.707 673.128 411.707H673.274C674.124 411.707 674.891 411.917 675.574 412.337C676.258 412.757 676.785 413.313 677.156 414.007C677.342 413.665 677.571 413.353 677.845 413.069C678.118 412.786 678.421 412.547 678.753 412.352C679.085 412.146 679.446 411.99 679.837 411.883C680.228 411.766 680.633 411.707 681.053 411.707H681.199C681.805 411.707 682.376 411.824 682.913 412.059C683.45 412.283 683.919 412.596 684.319 412.996C684.72 413.396 685.032 413.865 685.257 414.402C685.491 414.939 685.608 415.511 685.608 416.116V427H683.807ZM699.231 422.884C699.231 423.489 699.114 424.061 698.88 424.598C698.655 425.135 698.343 425.604 697.942 426.004C697.542 426.404 697.073 426.722 696.536 426.956C695.999 427.181 695.428 427.293 694.822 427.293H693.621C693.016 427.293 692.444 427.181 691.907 426.956C691.37 426.722 690.901 426.404 690.501 426.004C690.101 425.604 689.783 425.135 689.549 424.598C689.324 424.061 689.212 423.489 689.212 422.884V416.116C689.212 415.511 689.324 414.939 689.549 414.402C689.783 413.865 690.101 413.396 690.501 412.996C690.901 412.596 691.37 412.283 691.907 412.059C692.444 411.824 693.016 411.707 693.621 411.707H694.822C695.428 411.707 695.999 411.824 696.536 412.059C697.073 412.283 697.542 412.596 697.942 412.996C698.343 413.396 698.655 413.865 698.88 414.402C699.114 414.939 699.231 415.511 699.231 416.116V419.646H691.014V422.986C691.014 423.348 691.082 423.689 691.219 424.012C691.355 424.324 691.541 424.598 691.775 424.832C692.01 425.066 692.283 425.252 692.596 425.389C692.918 425.525 693.26 425.594 693.621 425.594H694.822C695.184 425.594 695.521 425.525 695.833 425.389C696.155 425.252 696.434 425.066 696.668 424.832C696.902 424.598 697.088 424.324 697.225 424.012C697.361 423.689 697.43 423.348 697.43 422.986V421.99L699.231 422.283V422.884ZM697.43 416.014C697.43 415.652 697.361 415.315 697.225 415.003C697.088 414.681 696.902 414.402 696.668 414.168C696.434 413.934 696.155 413.748 695.833 413.611C695.521 413.475 695.184 413.406 694.822 413.406H693.621C693.26 413.406 692.918 413.475 692.596 413.611C692.283 413.748 692.01 413.934 691.775 414.168C691.541 414.402 691.355 414.681 691.219 415.003C691.082 415.315 691.014 415.652 691.014 416.014V418.24H697.43V416.014ZM712.254 427L711.258 425.477C710.848 426.033 710.335 426.478 709.72 426.81C709.104 427.132 708.431 427.293 707.698 427.293H707.244C706.639 427.293 706.067 427.181 705.53 426.956C704.993 426.722 704.524 426.404 704.124 426.004C703.724 425.604 703.406 425.135 703.172 424.598C702.947 424.061 702.835 423.489 702.835 422.884V416.116C702.835 415.511 702.947 414.939 703.172 414.402C703.406 413.865 703.724 413.396 704.124 412.996C704.524 412.596 704.993 412.283 705.53 412.059C706.067 411.824 706.639 411.707 707.244 411.707H707.698C708.372 411.707 708.997 411.844 709.573 412.117C710.149 412.391 710.643 412.771 711.053 413.26V405.994H712.854V427H712.254ZM711.053 416.014C711.053 415.652 710.984 415.315 710.848 415.003C710.711 414.681 710.525 414.402 710.291 414.168C710.057 413.934 709.778 413.748 709.456 413.611C709.144 413.475 708.807 413.406 708.445 413.406H707.244C706.883 413.406 706.541 413.475 706.219 413.611C705.906 413.748 705.633 413.934 705.398 414.168C705.164 414.402 704.979 414.681 704.842 415.003C704.705 415.315 704.637 415.652 704.637 416.014V422.986C704.637 423.348 704.705 423.689 704.842 424.012C704.979 424.324 705.164 424.598 705.398 424.832C705.633 425.066 705.906 425.252 706.219 425.389C706.541 425.525 706.883 425.594 707.244 425.594H708.445C708.807 425.594 709.144 425.525 709.456 425.389C709.778 425.252 710.057 425.066 710.291 424.832C710.525 424.598 710.711 424.324 710.848 424.012C710.984 423.689 711.053 423.348 711.053 422.986V416.014Z" fill="#3C4242"/>
</svg>
