<svg width="267" height="44" viewBox="0 0 267 44" fill="none" xmlns="http://www.w3.org/2000/svg">
<rect width="267" height="44" rx="8" fill="#F6F6F6"/>
<path d="M36.6363 29.697C36.9292 29.9899 37.4041 29.9899 37.697 29.697C37.9899 29.4041 37.9899 28.9292 37.697 28.6363L36.6363 29.697ZM33.9167 20.8333C33.9167 23.6408 31.6408 25.9167 28.8333 25.9167V27.4167C32.4692 27.4167 35.4167 24.4692 35.4167 20.8333H33.9167ZM28.8333 25.9167C26.0259 25.9167 23.75 23.6408 23.75 20.8333H22.25C22.25 24.4692 25.1975 27.4167 28.8333 27.4167V25.9167ZM23.75 20.8333C23.75 18.0259 26.0259 15.75 28.8333 15.75V14.25C25.1975 14.25 22.25 17.1975 22.25 20.8333H23.75ZM28.8333 15.75C31.6408 15.75 33.9167 18.0259 33.9167 20.8333H35.4167C35.4167 17.1975 32.4692 14.25 28.8333 14.25V15.75ZM32.4697 25.5303L36.6363 29.697L37.697 28.6363L33.5303 24.4697L32.4697 25.5303Z" fill="#807D7E"/>
<path d="M58.0531 26.764C58.5758 26.764 59.0131 26.7 59.3651 26.572C59.7171 26.4333 59.9838 26.2147 60.1651 25.916C60.3465 25.6173 60.4371 25.2333 60.4371 24.764C60.4371 24.3267 60.3465 23.9693 60.1651 23.692C59.9945 23.4147 59.7545 23.1907 59.4451 23.02C59.1465 22.8387 58.8051 22.6893 58.4211 22.572C58.0478 22.444 57.6638 22.332 57.2691 22.236C56.8105 22.108 56.3625 21.9747 55.9251 21.836C55.4985 21.6867 55.1145 21.4893 54.7731 21.244C54.4318 20.9987 54.1598 20.6893 53.9571 20.316C53.7651 19.932 53.6691 19.4467 53.6691 18.86C53.6691 18.252 53.8131 17.7293 54.1011 17.292C54.3998 16.844 54.8051 16.5027 55.3171 16.268C55.8291 16.0227 56.4211 15.9 57.0931 15.9C57.6371 15.9 58.1278 15.98 58.5651 16.14C59.0025 16.2893 59.3865 16.556 59.7171 16.94C60.0585 17.324 60.3251 17.8573 60.5171 18.54L60.0531 18.348L60.2771 16.092H61.2371V19.26H60.1811C60.0211 18.7373 59.7971 18.3 59.5091 17.948C59.2318 17.5853 58.8958 17.3133 58.5011 17.132C58.1171 16.94 57.6798 16.844 57.1891 16.844C56.6985 16.844 56.2931 16.9187 55.9731 17.068C55.6531 17.2173 55.4131 17.436 55.2531 17.724C55.0931 18.0013 55.0131 18.3373 55.0131 18.732C55.0131 19.116 55.0931 19.4307 55.2531 19.676C55.4238 19.9213 55.6531 20.124 55.9411 20.284C56.2398 20.4333 56.5758 20.5667 56.9491 20.684C57.3331 20.7907 57.7385 20.9027 58.1651 21.02C58.6131 21.1373 59.0558 21.2707 59.4931 21.42C59.9305 21.5693 60.3305 21.7667 60.6931 22.012C61.0558 22.2573 61.3385 22.5773 61.5411 22.972C61.7545 23.356 61.8611 23.8413 61.8611 24.428C61.8611 25.164 61.6905 25.7773 61.3491 26.268C61.0185 26.7587 60.5705 27.1267 60.0051 27.372C59.4398 27.6173 58.8051 27.74 58.1011 27.74C57.4505 27.74 56.8425 27.6387 56.2771 27.436C55.7118 27.2333 55.2265 26.9027 54.8211 26.444C54.4265 25.9747 54.1331 25.3507 53.9411 24.572L54.5331 24.908L54.3251 27.548H53.3011V23.868H54.3571C54.5278 24.4867 54.7838 25.0147 55.1251 25.452C55.4771 25.8787 55.8985 26.204 56.3891 26.428C56.8905 26.652 57.4451 26.764 58.0531 26.764ZM65.083 23.356C65.083 23.9427 65.1523 24.4493 65.291 24.876C65.4403 25.3027 65.643 25.6547 65.899 25.932C66.155 26.1987 66.4537 26.4013 66.795 26.54C67.1363 26.668 67.5097 26.732 67.915 26.732C68.3523 26.732 68.731 26.652 69.051 26.492C69.3817 26.3213 69.6643 26.1133 69.899 25.868C70.1337 25.6227 70.331 25.3667 70.491 25.1L71.259 25.74C71.0563 26.1027 70.795 26.4333 70.475 26.732C70.155 27.0307 69.7763 27.2653 69.339 27.436C68.9123 27.596 68.427 27.676 67.883 27.676C67.083 27.676 66.3577 27.5053 65.707 27.164C65.067 26.8227 64.5603 26.3267 64.187 25.676C63.8137 25.0253 63.627 24.2467 63.627 23.34C63.627 22.4547 63.7977 21.6813 64.139 21.02C64.491 20.3587 64.9657 19.8413 65.563 19.468C66.1603 19.0947 66.8377 18.908 67.595 18.908C68.203 18.908 68.731 19.0093 69.179 19.212C69.6377 19.404 70.0217 19.7027 70.331 20.108C70.6403 20.5027 70.875 20.9987 71.035 21.596C71.195 22.1827 71.275 22.876 71.275 23.676H64.763V22.764H70.219L69.787 23.116C69.7657 22.5293 69.707 22.0333 69.611 21.628C69.5257 21.212 69.3977 20.876 69.227 20.62C69.0563 20.3533 68.8323 20.1613 68.555 20.044C68.2883 19.916 67.9683 19.852 67.595 19.852C67.2323 19.852 66.8963 19.9267 66.587 20.076C66.2777 20.2253 66.011 20.4493 65.787 20.748C65.563 21.0467 65.387 21.4147 65.259 21.852C65.1417 22.2893 65.083 22.7907 65.083 23.356ZM78.275 22.364V23.212C77.6563 23.2867 77.123 23.372 76.675 23.468C76.227 23.564 75.8483 23.676 75.539 23.804C75.2297 23.932 74.979 24.076 74.787 24.236C74.6057 24.3853 74.4723 24.5613 74.387 24.764C74.3123 24.9667 74.275 25.1907 74.275 25.436C74.275 25.7133 74.3337 25.9533 74.451 26.156C74.5683 26.348 74.739 26.4973 74.963 26.604C75.187 26.7107 75.443 26.764 75.731 26.764C76.083 26.764 76.403 26.6787 76.691 26.508C76.979 26.3373 77.251 26.092 77.507 25.772C77.763 25.452 78.0083 25.0573 78.243 24.588V25.596C78.051 26.0227 77.8163 26.3907 77.539 26.7C77.2617 27.0093 76.9417 27.2493 76.579 27.42C76.227 27.5907 75.827 27.676 75.379 27.676C74.8883 27.676 74.4457 27.5907 74.051 27.42C73.667 27.2387 73.363 26.9827 73.139 26.652C72.915 26.3107 72.803 25.9053 72.803 25.436C72.803 24.9987 72.9043 24.6147 73.107 24.284C73.3203 23.9533 73.6457 23.6707 74.083 23.436C74.531 23.1907 75.0963 22.9827 75.779 22.812C76.4723 22.6413 77.3043 22.492 78.275 22.364ZM78.163 27.5L78.035 25.692L77.923 25.612V21.548C77.923 21.132 77.8643 20.8013 77.747 20.556C77.6403 20.3 77.4643 20.1187 77.219 20.012C76.9737 19.9053 76.6483 19.852 76.243 19.852C75.6457 19.852 75.155 19.948 74.771 20.14C74.387 20.332 74.099 20.5453 73.907 20.78C73.8963 20.6733 73.907 20.572 73.939 20.476C73.9817 20.38 74.035 20.2947 74.099 20.22C74.1737 20.1347 74.259 20.0653 74.355 20.012C74.4617 19.948 74.5737 19.9 74.691 19.868V21.66H73.283V19.804C73.443 19.6867 73.6617 19.5587 73.939 19.42C74.2163 19.2813 74.5577 19.164 74.963 19.068C75.3683 18.9613 75.8217 18.908 76.323 18.908C76.739 18.908 77.123 18.9507 77.475 19.036C77.8377 19.1213 78.1577 19.26 78.435 19.452C78.723 19.644 78.9417 19.9 79.091 20.22C79.251 20.5293 79.331 20.9133 79.331 21.372V26.076C79.331 26.2253 79.3843 26.3427 79.491 26.428C79.6083 26.5133 79.763 26.5773 79.955 26.62C80.1577 26.652 80.3923 26.6787 80.659 26.7L80.707 26.716V27.5H78.163ZM87.5284 18.956V20.46C87.4537 20.428 87.363 20.4067 87.2564 20.396C87.1497 20.3853 87.0377 20.3747 86.9204 20.364C86.8137 20.3533 86.707 20.348 86.6004 20.348C86.3124 20.348 86.051 20.38 85.8164 20.444C85.5924 20.508 85.3844 20.6093 85.1924 20.748C85.011 20.876 84.835 21.0467 84.6644 21.26C84.5044 21.4733 84.3337 21.7293 84.1524 22.028V21.18C84.3764 20.7 84.6217 20.2893 84.8884 19.948C85.1657 19.6067 85.4697 19.3453 85.8004 19.164C86.1417 18.9827 86.5204 18.892 86.9364 18.892C87.0644 18.892 87.1817 18.8973 87.2884 18.908C87.395 18.9187 87.475 18.9347 87.5284 18.956ZM81.6244 27.5V26.748H81.6724C82.0777 26.748 82.403 26.7 82.6484 26.604C82.8937 26.4973 83.0164 26.284 83.0164 25.964V20.62C83.0164 20.46 82.9684 20.3427 82.8724 20.268C82.787 20.1827 82.6537 20.1133 82.4724 20.06C82.291 20.0067 82.0617 19.9533 81.7844 19.9L81.6244 19.868V19.068H84.2164L84.3444 21.276L84.4404 21.18V26.332C84.4404 26.4493 84.515 26.54 84.6644 26.604C84.8137 26.668 84.9897 26.7107 85.1924 26.732C85.395 26.7427 85.571 26.748 85.7204 26.748H86.0564V27.5H81.6244ZM92.9013 26.732C93.3706 26.732 93.7706 26.652 94.1013 26.492C94.4426 26.3213 94.7359 26.108 94.9813 25.852C95.2266 25.5853 95.4346 25.3187 95.6053 25.052L96.3413 25.708C96.1173 26.0813 95.8399 26.4173 95.5093 26.716C95.1893 27.0147 94.8053 27.2493 94.3573 27.42C93.9199 27.5907 93.4186 27.676 92.8533 27.676C91.9786 27.676 91.2159 27.4947 90.5653 27.132C89.9146 26.7587 89.4133 26.2467 89.0613 25.596C88.7093 24.9347 88.5333 24.1667 88.5333 23.292C88.5333 22.396 88.7146 21.6227 89.0773 20.972C89.4506 20.3213 89.9679 19.8147 90.6293 19.452C91.2906 19.0893 92.0693 18.908 92.9653 18.908C93.5199 18.908 94.0053 18.9613 94.4213 19.068C94.8479 19.164 95.2053 19.2813 95.4933 19.42C95.7813 19.5587 95.9946 19.6813 96.1333 19.788V22.076H94.6933V20.092C94.8106 20.1133 94.9173 20.1453 95.0133 20.188C95.1093 20.22 95.1893 20.2733 95.2533 20.348C95.3173 20.412 95.3653 20.4867 95.3973 20.572C95.4293 20.6573 95.4399 20.7533 95.4293 20.86C95.2159 20.572 94.8853 20.332 94.4373 20.14C93.9893 19.948 93.4986 19.852 92.9653 19.852C92.3039 19.852 91.7546 19.9907 91.3173 20.268C90.8906 20.5453 90.5706 20.9453 90.3573 21.468C90.1439 21.98 90.0373 22.588 90.0373 23.292C90.0373 23.836 90.0959 24.3213 90.2133 24.748C90.3413 25.1747 90.5226 25.5373 90.7573 25.836C90.9919 26.124 91.2853 26.348 91.6373 26.508C91.9999 26.6573 92.4213 26.732 92.9013 26.732ZM100.362 15.5V26.588C100.362 26.62 100.426 26.652 100.554 26.684C100.682 26.7053 100.837 26.7213 101.018 26.732C101.2 26.7427 101.365 26.748 101.514 26.748H101.578V27.5H97.5463V26.748H97.5943C97.8609 26.748 98.0956 26.7267 98.2983 26.684C98.5009 26.6413 98.6556 26.5613 98.7623 26.444C98.8796 26.3267 98.9383 26.1667 98.9383 25.964V17.052C98.9383 16.892 98.8956 16.7693 98.8103 16.684C98.7249 16.5987 98.5916 16.5293 98.4103 16.476C98.2289 16.4227 97.9996 16.3747 97.7223 16.332L97.5463 16.3V15.5H100.362ZM107.146 27.5H103.13V26.748H103.178C103.328 26.748 103.493 26.7427 103.674 26.732C103.856 26.7213 104.01 26.7053 104.138 26.684C104.277 26.652 104.346 26.62 104.346 26.588V21.548C104.346 21.1853 104.298 20.8867 104.202 20.652C104.117 20.4173 103.973 20.2413 103.77 20.124C103.578 20.0067 103.306 19.948 102.954 19.948C102.602 19.948 102.261 20.0173 101.93 20.156C101.6 20.2947 101.28 20.5027 100.97 20.78C100.672 21.0573 100.373 21.404 100.074 21.82V20.876C100.384 20.4387 100.698 20.076 101.018 19.788C101.349 19.5 101.696 19.2813 102.058 19.132C102.432 18.9827 102.837 18.908 103.274 18.908C103.797 18.908 104.24 18.9987 104.602 19.18C104.976 19.3507 105.264 19.6227 105.466 19.996C105.669 20.3587 105.77 20.8173 105.77 21.372V25.964C105.77 26.284 105.893 26.4973 106.138 26.604C106.384 26.7 106.704 26.748 107.098 26.748H107.146V27.5Z" fill="#807D7E"/>
</svg>
