<svg width="251" height="61" viewBox="0 0 251 61" fill="none" xmlns="http://www.w3.org/2000/svg">
<rect width="251" height="61" rx="8" fill="white"/>
<path d="M82.9255 24.888C82.5415 24.792 82.1415 24.704 81.7255 24.624C81.3575 24.544 80.9335 24.48 80.4535 24.432C79.9895 24.368 79.5015 24.336 78.9895 24.336C77.8055 24.336 76.9575 24.52 76.4455 24.888C75.9335 25.24 75.6775 25.792 75.6775 26.544C75.6935 27.136 75.9095 27.64 76.3255 28.056C76.7415 28.456 77.2615 28.832 77.8855 29.184C78.5095 29.52 79.1895 29.856 79.9255 30.192C80.6775 30.512 81.3655 30.888 81.9895 31.32C82.6135 31.736 83.1335 32.232 83.5495 32.808C83.9815 33.368 84.1975 34.056 84.1975 34.872C84.1975 35.816 83.9895 36.576 83.5735 37.152C83.1735 37.728 82.6615 38.176 82.0375 38.496C81.4135 38.816 80.7255 39.032 79.9735 39.144C79.2375 39.256 78.5335 39.312 77.8615 39.312C77.2215 39.312 76.6375 39.272 76.1095 39.192C75.5815 39.112 75.1255 39.024 74.7415 38.928C74.2935 38.816 73.8855 38.688 73.5175 38.544L73.9975 36.6C74.3655 36.76 74.7575 36.896 75.1735 37.008C75.5415 37.104 75.9495 37.192 76.3975 37.272C76.8615 37.352 77.3495 37.392 77.8615 37.392C78.4855 37.392 79.0535 37.352 79.5655 37.272C80.0935 37.192 80.5495 37.064 80.9335 36.888C81.3175 36.712 81.6135 36.48 81.8215 36.192C82.0455 35.904 82.1575 35.552 82.1575 35.136C82.1415 34.512 81.9335 34.008 81.5335 33.624C81.1495 33.224 80.6295 32.848 79.9735 32.496C79.3335 32.128 78.6375 31.776 77.8855 31.44C77.1495 31.104 76.4695 30.72 75.8455 30.288C75.2215 29.856 74.6935 29.344 74.2615 28.752C73.8455 28.16 73.6375 27.424 73.6375 26.544C73.6375 26.032 73.7255 25.528 73.9015 25.032C74.0775 24.536 74.3735 24.096 74.7895 23.712C75.2215 23.328 75.7735 23.016 76.4455 22.776C77.1335 22.536 77.9815 22.416 78.9895 22.416C79.5655 22.416 80.1095 22.448 80.6215 22.512C81.1495 22.56 81.6055 22.616 81.9895 22.68C82.4375 22.76 82.8615 22.848 83.2615 22.944L82.9255 24.888ZM86.7983 21.024L88.7183 20.808V28.44C89.1983 28.12 89.6703 27.84 90.1343 27.6C90.6143 27.36 91.1023 27.152 91.5983 26.976C92.0943 26.784 92.5743 26.688 93.0383 26.688C93.6943 26.688 94.2383 26.768 94.6703 26.928C95.1183 27.072 95.4783 27.32 95.7503 27.672C96.0223 28.024 96.2143 28.488 96.3263 29.064C96.4543 29.64 96.5183 30.36 96.5183 31.224V39H94.5983V31.44C94.5983 30.96 94.5903 30.536 94.5743 30.168C94.5583 29.784 94.4863 29.464 94.3583 29.208C94.2463 28.936 94.0623 28.728 93.8063 28.584C93.5663 28.44 93.2223 28.368 92.7743 28.368C92.3583 28.368 91.9103 28.464 91.4303 28.656C90.9503 28.832 90.4943 29.04 90.0623 29.28C89.6303 29.52 89.1823 29.8 88.7183 30.12V39H86.7983V21.024ZM101.268 33.024C101.268 34.576 101.612 35.736 102.3 36.504C103.004 37.256 103.948 37.632 105.132 37.632C106.3 37.632 107.212 37.256 107.868 36.504C108.524 35.752 108.852 34.624 108.852 33.12C108.852 31.52 108.5 30.328 107.796 29.544C107.108 28.76 106.164 28.368 104.964 28.368C103.764 28.368 102.844 28.76 102.204 29.544C101.58 30.312 101.268 31.472 101.268 33.024ZM99.2279 33C99.2279 31.784 99.4199 30.776 99.8039 29.976C100.188 29.16 100.676 28.512 101.268 28.032C101.86 27.536 102.492 27.192 103.164 27C103.852 26.792 104.5 26.688 105.108 26.688C105.684 26.688 106.308 26.784 106.98 26.976C107.668 27.152 108.3 27.48 108.876 27.96C109.452 28.424 109.932 29.056 110.316 29.856C110.7 30.64 110.892 31.64 110.892 32.856C110.892 34.12 110.692 35.168 110.292 36C109.908 36.832 109.42 37.496 108.828 37.992C108.236 38.472 107.596 38.808 106.908 39C106.22 39.208 105.58 39.312 104.988 39.312C104.38 39.312 103.74 39.216 103.068 39.024C102.396 38.832 101.772 38.504 101.196 38.04C100.636 37.56 100.164 36.912 99.7799 36.096C99.4119 35.28 99.2279 34.248 99.2279 33ZM113.705 29.712C113.705 29.136 113.665 28.28 113.585 27.144L115.361 26.904L115.577 28.2C115.897 27.928 116.225 27.688 116.561 27.48C116.913 27.256 117.289 27.072 117.689 26.928C118.105 26.768 118.545 26.688 119.009 26.688C119.665 26.688 120.281 26.8 120.857 27.024C121.449 27.248 121.961 27.608 122.393 28.104C122.841 28.6 123.193 29.248 123.449 30.048C123.705 30.832 123.833 31.8 123.833 32.952C123.833 34.12 123.657 35.112 123.305 35.928C122.969 36.728 122.521 37.384 121.961 37.896C121.417 38.392 120.793 38.752 120.089 38.976C119.401 39.2 118.697 39.312 117.977 39.312C117.209 39.296 116.425 39.2 115.625 39.024V44.232L113.705 44.472V29.712ZM117.977 37.632C118.649 37.632 119.225 37.512 119.705 37.272C120.185 37.032 120.577 36.704 120.881 36.288C121.201 35.856 121.433 35.368 121.577 34.824C121.721 34.264 121.793 33.672 121.793 33.048C121.793 32.488 121.737 31.928 121.625 31.368C121.529 30.808 121.361 30.312 121.121 29.88C120.897 29.432 120.593 29.072 120.209 28.8C119.825 28.512 119.353 28.368 118.793 28.368C118.377 28.368 117.985 28.448 117.617 28.608C117.249 28.752 116.897 28.936 116.561 29.16C116.241 29.368 115.929 29.608 115.625 29.88V37.248C115.801 37.312 115.993 37.376 116.201 37.44C116.425 37.488 116.681 37.536 116.969 37.584C117.273 37.616 117.609 37.632 117.977 37.632ZM132.51 22.632H134.43L143.022 35.616H143.07C143.038 35.152 143.014 34.656 142.998 34.128C142.966 33.68 142.942 33.168 142.926 32.592C142.926 32 142.926 31.4 142.926 30.792V22.632H144.846V39H142.926L134.334 25.968H134.286C134.302 26.448 134.326 26.952 134.358 27.48C134.374 27.944 134.39 28.464 134.406 29.04C134.422 29.616 134.43 30.208 134.43 30.816V39H132.51V22.632ZM149.877 33.024C149.877 34.576 150.221 35.736 150.909 36.504C151.613 37.256 152.557 37.632 153.741 37.632C154.909 37.632 155.821 37.256 156.477 36.504C157.133 35.752 157.461 34.624 157.461 33.12C157.461 31.52 157.109 30.328 156.405 29.544C155.717 28.76 154.773 28.368 153.573 28.368C152.373 28.368 151.453 28.76 150.813 29.544C150.189 30.312 149.877 31.472 149.877 33.024ZM147.837 33C147.837 31.784 148.029 30.776 148.413 29.976C148.797 29.16 149.285 28.512 149.877 28.032C150.469 27.536 151.101 27.192 151.773 27C152.461 26.792 153.109 26.688 153.717 26.688C154.293 26.688 154.917 26.784 155.589 26.976C156.277 27.152 156.909 27.48 157.485 27.96C158.061 28.424 158.541 29.056 158.925 29.856C159.309 30.64 159.501 31.64 159.501 32.856C159.501 34.12 159.301 35.168 158.901 36C158.517 36.832 158.029 37.496 157.437 37.992C156.845 38.472 156.205 38.808 155.517 39C154.829 39.208 154.189 39.312 153.597 39.312C152.989 39.312 152.349 39.216 151.677 39.024C151.005 38.832 150.381 38.504 149.805 38.04C149.245 37.56 148.773 36.912 148.389 36.096C148.021 35.28 147.837 34.248 147.837 33ZM160.995 26.928H163.011L164.427 32.376C164.555 32.84 164.667 33.336 164.763 33.864C164.875 34.376 164.979 34.856 165.075 35.304C165.171 35.832 165.275 36.352 165.387 36.864H165.411C165.523 36.352 165.651 35.832 165.795 35.304C165.923 34.856 166.059 34.376 166.203 33.864C166.347 33.336 166.491 32.84 166.635 32.376L168.339 26.928H170.907L172.275 32.376C172.387 32.84 172.499 33.336 172.611 33.864C172.739 34.376 172.843 34.856 172.923 35.304C173.019 35.832 173.115 36.352 173.211 36.864H173.234C173.378 36.336 173.531 35.808 173.691 35.28C173.819 34.832 173.963 34.352 174.122 33.84C174.283 33.312 174.435 32.824 174.579 32.376L176.259 26.928H178.251L174.291 39H172.155L170.427 32.376C170.267 31.768 170.131 31.224 170.019 30.744C169.923 30.248 169.835 29.832 169.755 29.496C169.675 29.096 169.603 28.744 169.539 28.44H169.491C169.427 28.744 169.347 29.096 169.251 29.496C169.171 29.832 169.059 30.248 168.915 30.744C168.771 31.224 168.611 31.768 168.435 32.376L166.395 39H164.259L160.995 26.928Z" fill="#3C4242"/>
</svg>
