<svg width="167" height="53" viewBox="0 0 167 53" fill="none" xmlns="http://www.w3.org/2000/svg">
<rect width="167" height="53" rx="8" fill="#8A33FD"/>
<path d="M57.7513 32.01C58.2793 32.01 58.7233 31.938 59.0833 31.794C59.4433 31.65 59.7193 31.428 59.9113 31.128C60.1033 30.828 60.1993 30.444 60.1993 29.976C60.1993 29.544 60.1033 29.19 59.9113 28.914C59.7313 28.626 59.4793 28.392 59.1553 28.212C58.8433 28.02 58.4773 27.858 58.0573 27.726C57.6493 27.594 57.2113 27.462 56.7433 27.33C56.2513 27.198 55.7713 27.048 55.3033 26.88C54.8353 26.7 54.4093 26.466 54.0253 26.178C53.6533 25.89 53.3533 25.53 53.1253 25.098C52.9093 24.666 52.8013 24.12 52.8013 23.46C52.8013 22.74 52.9753 22.122 53.3233 21.606C53.6833 21.09 54.1633 20.694 54.7633 20.418C55.3633 20.13 56.0413 19.986 56.7973 19.986C57.4093 19.986 57.9613 20.076 58.4533 20.256C58.9453 20.424 59.3833 20.718 59.7673 21.138C60.1513 21.558 60.4633 22.14 60.7033 22.884L60.0373 22.758L60.3253 20.184H61.4773V23.658H60.1813C60.0013 23.13 59.7553 22.686 59.4433 22.326C59.1433 21.954 58.7833 21.672 58.3633 21.48C57.9553 21.288 57.5053 21.192 57.0133 21.192C56.5213 21.192 56.1073 21.27 55.7713 21.426C55.4353 21.57 55.1833 21.786 55.0153 22.074C54.8473 22.35 54.7633 22.686 54.7633 23.082C54.7633 23.466 54.8533 23.784 55.0333 24.036C55.2133 24.288 55.4593 24.498 55.7713 24.666C56.0833 24.822 56.4433 24.96 56.8513 25.08C57.2593 25.2 57.6913 25.32 58.1473 25.44C58.6633 25.572 59.1613 25.728 59.6413 25.908C60.1333 26.088 60.5713 26.322 60.9553 26.61C61.3513 26.886 61.6633 27.246 61.8913 27.69C62.1313 28.134 62.2513 28.686 62.2513 29.346C62.2513 30.174 62.0593 30.882 61.6753 31.47C61.3033 32.046 60.7873 32.484 60.1273 32.784C59.4673 33.084 58.7173 33.234 57.8773 33.234C57.1573 33.234 56.4793 33.12 55.8433 32.892C55.2193 32.664 54.6673 32.298 54.1873 31.794C53.7193 31.29 53.3653 30.612 53.1253 29.76L53.9173 30.012L53.6293 33.018H52.4053V28.95H53.7553C53.9593 29.586 54.2533 30.138 54.6373 30.606C55.0213 31.062 55.4773 31.41 56.0053 31.65C56.5453 31.89 57.1273 32.01 57.7513 32.01ZM66.0095 21.912C65.6135 21.912 65.2895 21.804 65.0375 21.588C64.7975 21.372 64.6775 21.066 64.6775 20.67C64.6775 20.274 64.7975 19.974 65.0375 19.77C65.2895 19.554 65.6135 19.446 66.0095 19.446C66.4055 19.446 66.7295 19.554 66.9815 19.77C67.2335 19.974 67.3595 20.274 67.3595 20.67C67.3595 21.066 67.2335 21.372 66.9815 21.588C66.7295 21.804 66.4055 21.912 66.0095 21.912ZM67.1795 23.658V31.362C67.1795 31.638 67.2995 31.824 67.5395 31.92C67.7915 32.016 68.1155 32.064 68.5115 32.064H68.5295V33H63.6695V32.064H63.7055C64.0895 32.064 64.4075 32.016 64.6595 31.92C64.9115 31.824 65.0375 31.638 65.0375 31.362V25.422C65.0375 25.182 64.9355 25.02 64.7315 24.936C64.5395 24.852 64.2395 24.768 63.8315 24.684L63.6515 24.648V23.658H67.1795ZM79.7269 25.098C79.2229 25.038 78.7789 25.008 78.3949 25.008C78.0229 24.996 77.7049 25.014 77.4409 25.062C77.1889 25.11 76.9729 25.206 76.7929 25.35L76.5049 25.206C76.6729 24.834 76.8649 24.516 77.0809 24.252C77.3089 23.976 77.5549 23.754 77.8189 23.586C78.0829 23.418 78.3709 23.304 78.6829 23.244C79.0069 23.172 79.3549 23.16 79.7269 23.208V25.098ZM74.1109 30.156C73.3429 30.156 72.6649 30.024 72.0769 29.76C71.4889 29.484 71.0269 29.1 70.6909 28.608C70.3669 28.104 70.2049 27.516 70.2049 26.844C70.2049 26.172 70.3729 25.584 70.7089 25.08C71.0449 24.576 71.5069 24.186 72.0949 23.91C72.6829 23.622 73.3549 23.478 74.1109 23.478C74.8669 23.478 75.5389 23.622 76.1269 23.91C76.7149 24.186 77.1769 24.576 77.5129 25.08C77.8489 25.584 78.0169 26.172 78.0169 26.844C78.0169 27.516 77.8489 28.104 77.5129 28.608C77.1769 29.1 76.7149 29.484 76.1269 29.76C75.5389 30.024 74.8669 30.156 74.1109 30.156ZM74.1109 29.022C74.5069 29.022 74.8369 28.944 75.1009 28.788C75.3769 28.62 75.5869 28.374 75.7309 28.05C75.8869 27.726 75.9649 27.324 75.9649 26.844C75.9649 26.364 75.8869 25.962 75.7309 25.638C75.5869 25.302 75.3769 25.05 75.1009 24.882C74.8369 24.702 74.5069 24.612 74.1109 24.612C73.7269 24.612 73.3969 24.702 73.1209 24.882C72.8449 25.05 72.6289 25.302 72.4729 25.638C72.3289 25.962 72.2569 26.364 72.2569 26.844C72.2569 27.324 72.3289 27.726 72.4729 28.05C72.6289 28.374 72.8449 28.62 73.1209 28.788C73.3969 28.944 73.7269 29.022 74.1109 29.022ZM73.4989 37.302C72.6709 37.302 71.9329 37.23 71.2849 37.086C70.6489 36.942 70.1449 36.702 69.7729 36.366C69.4129 36.03 69.2329 35.592 69.2329 35.052C69.2329 34.74 69.3109 34.464 69.4669 34.224C69.6349 33.984 69.8869 33.762 70.2229 33.558C70.5709 33.354 71.0149 33.15 71.5549 32.946L72.1849 33.378C71.8969 33.534 71.6629 33.69 71.4829 33.846C71.3149 34.014 71.1889 34.182 71.1049 34.35C71.0329 34.518 70.9969 34.698 70.9969 34.89C70.9969 35.166 71.0869 35.394 71.2669 35.574C71.4589 35.754 71.7469 35.892 72.1309 35.988C72.5269 36.084 73.0309 36.132 73.6429 36.132H74.5969C75.1969 36.132 75.7189 36.066 76.1629 35.934C76.6069 35.802 76.9489 35.61 77.1889 35.358C77.4289 35.118 77.5489 34.842 77.5489 34.53C77.5489 34.218 77.4349 33.99 77.2069 33.846C76.9909 33.702 76.5889 33.63 76.0009 33.63H71.6989L71.6449 33.54C71.2249 33.384 70.8769 33.216 70.6009 33.036C70.3369 32.856 70.1449 32.652 70.0249 32.424C69.9049 32.184 69.8449 31.92 69.8449 31.632C69.8449 31.308 69.9289 31.008 70.0969 30.732C70.2649 30.456 70.5109 30.198 70.8349 29.958C71.1589 29.718 71.5669 29.496 72.0589 29.292L72.7789 29.742C72.5389 29.874 72.3289 30.006 72.1489 30.138C71.9689 30.27 71.8369 30.408 71.7529 30.552C71.6689 30.684 71.6269 30.834 71.6269 31.002C71.6269 31.254 71.7409 31.434 71.9689 31.542C72.1969 31.65 72.5329 31.704 72.9769 31.704H76.0729C76.8049 31.704 77.4169 31.794 77.9089 31.974C78.4129 32.142 78.7909 32.4 79.0429 32.748C79.2949 33.096 79.4209 33.534 79.4209 34.062C79.4209 34.794 79.2049 35.4 78.7729 35.88C78.3529 36.36 77.7769 36.714 77.0449 36.942C76.3249 37.182 75.5209 37.302 74.6329 37.302H73.4989ZM80.5089 33V32.064H80.5449C80.8089 32.064 81.0369 32.046 81.2289 32.01C81.4329 31.962 81.5889 31.884 81.6969 31.776C81.8169 31.668 81.8769 31.518 81.8769 31.326V25.422C81.8769 25.266 81.8349 25.146 81.7509 25.062C81.6669 24.978 81.5349 24.912 81.3549 24.864C81.1749 24.804 80.9529 24.744 80.6889 24.684L80.5089 24.648V23.658H83.8029L83.8749 25.656L84.0189 25.764V31.884C84.0189 31.92 84.0789 31.956 84.1989 31.992C84.3309 32.016 84.4869 32.034 84.6669 32.046C84.8469 32.058 85.0089 32.064 85.1529 32.064H85.2249V33H80.5089ZM91.4349 33H86.7189V32.064H86.7729C86.9169 32.064 87.0789 32.058 87.2589 32.046C87.4389 32.034 87.5949 32.016 87.7269 31.992C87.8589 31.956 87.9249 31.92 87.9249 31.884V26.538C87.9249 26.154 87.8769 25.842 87.7809 25.602C87.6969 25.35 87.5529 25.164 87.3489 25.044C87.1569 24.924 86.8929 24.864 86.5569 24.864C86.1969 24.864 85.8489 24.942 85.5129 25.098C85.1889 25.254 84.8709 25.488 84.5589 25.8C84.2589 26.112 83.9649 26.502 83.6769 26.97V25.674C83.9889 25.194 84.3189 24.792 84.6669 24.468C85.0149 24.144 85.3989 23.898 85.8189 23.73C86.2389 23.562 86.6949 23.478 87.1869 23.478C87.7749 23.478 88.2849 23.586 88.7169 23.802C89.1489 24.006 89.4789 24.324 89.7069 24.756C89.9469 25.188 90.0669 25.734 90.0669 26.394V31.326C90.0669 31.518 90.1209 31.668 90.2289 31.776C90.3489 31.884 90.5049 31.962 90.6969 32.01C90.9009 32.046 91.1289 32.064 91.3809 32.064H91.4349V33ZM98.7959 31.344V21.876C98.7959 21.612 98.6639 21.438 98.3999 21.354C98.1479 21.27 97.8179 21.228 97.4099 21.228H97.1939V20.22H102.666V21.228H102.432C102.036 21.228 101.706 21.27 101.442 21.354C101.19 21.438 101.064 21.612 101.064 21.876V31.344C101.064 31.608 101.19 31.782 101.442 31.866C101.706 31.95 102.036 31.992 102.432 31.992H102.666V33H97.1939V31.992H97.4099C97.8179 31.992 98.1479 31.95 98.3999 31.866C98.6639 31.782 98.7959 31.608 98.7959 31.344ZM104.064 33V32.064H104.1C104.364 32.064 104.592 32.046 104.784 32.01C104.988 31.962 105.144 31.884 105.252 31.776C105.372 31.668 105.432 31.518 105.432 31.326V25.422C105.432 25.266 105.39 25.146 105.306 25.062C105.222 24.978 105.09 24.912 104.91 24.864C104.73 24.804 104.508 24.744 104.244 24.684L104.064 24.648V23.658H107.358L107.43 25.656L107.574 25.764V31.884C107.574 31.92 107.634 31.956 107.754 31.992C107.886 32.016 108.042 32.034 108.222 32.046C108.402 32.058 108.564 32.064 108.708 32.064H108.78V33H104.064ZM114.99 33H110.274V32.064H110.328C110.472 32.064 110.634 32.058 110.814 32.046C110.994 32.034 111.15 32.016 111.282 31.992C111.414 31.956 111.48 31.92 111.48 31.884V26.538C111.48 26.154 111.432 25.842 111.336 25.602C111.252 25.35 111.108 25.164 110.904 25.044C110.712 24.924 110.448 24.864 110.112 24.864C109.752 24.864 109.404 24.942 109.068 25.098C108.744 25.254 108.426 25.488 108.114 25.8C107.814 26.112 107.52 26.502 107.232 26.97V25.674C107.544 25.194 107.874 24.792 108.222 24.468C108.57 24.144 108.954 23.898 109.374 23.73C109.794 23.562 110.25 23.478 110.742 23.478C111.33 23.478 111.84 23.586 112.272 23.802C112.704 24.006 113.034 24.324 113.262 24.756C113.502 25.188 113.622 25.734 113.622 26.394V31.326C113.622 31.518 113.676 31.668 113.784 31.776C113.904 31.884 114.06 31.962 114.252 32.01C114.456 32.046 114.684 32.064 114.936 32.064H114.99V33Z" fill="white"/>
</svg>
